<svg xmlns="http://www.w3.org/2000/svg" viewBox="-782.3 -195 2219.7 743.8"><path fill="#F5EDE4" d="M-320-129q-5-13 2-25c22-40 79-24 78 23l110 46 63 26c25-27 56-23 73 10l73-7q7-22 25-33c19-9 43 0 52 18q7 17 1 34c-10 26-35 29-58 21L74 14-35 142l-42 49q0 2 2 3c4 2 79-18 88-21 8-2 28-6 34-9 2-21 21-36 41-35q17 2 28 15c9 11 9 24 8 38v2c17 12 38 37 57 41 15 4 47 3 63 3h616v227c15 0 125-1 129 1l1 1c0 5 1 21-1 24H833V256l-45-1H192c-27-2-60-25-77-46l-6-3c-17 1-26 8-43 0-19 33-54 68-76 103 30 44-18 87-58 56-15 6-42 27-57 36q-58 40-118 78 2 11 1 21-2 17-16 27c-28 20-68-3-63-37l1-10-11-7-66-41-102-63-26-16a38 38 0 0 1-43 12c-37-14-36-61 4-78-2-20-2-45-11-63-7-14-130-199-135-203-4-4-23-1-30-3q-14-6-21-20-7-15-2-32 6-15 22-23 14-6 30-1 17 7 24 24c31-5 69-15 99-19q2-22 21-34 15-8 30-3c14 4 20 12 26 24l114-22 11-4q34-18 66-37M-671 48q48 69 93 140c7 9 18 22 21 31 7 19 9 47 8 68 31 5 37 26 33 53l13 7c22 9 186 118 195 117 1-7-12-26-15-34l-48-97-19-38-9-6c-30-13-65-32-93-46-62-30-54-72-5-110l9-9q-67-40-136-77c-23-13-52-28-74-42q15 21 27 43m26-73-38 8-3 9 142 79 61 35q-13-29-28-58l-28-59c-21 1-31-1-42-17-2-3-5-8-8-7zm192-35-54 10c-3 15-6 19-16 32l35 73c7 14 18 36 23 50q36-34 72-67 18-14 34-32c19-22-3-41-18-58l-16-20c-10 4-48 10-60 12m214 377a205 205 0 0 1-50 8c-15 1-36-4-49-9-7-2-20-10-27-10l74 149c10-2 15-1 25 0 30-54 65-107 97-160q10-19 22-37c-18 11-75 53-92 59m170-95c-1 14-4 21-16 29-14 11-25 7-42 5-9 20-24 40-35 59q-47 76-93 152c19-14 43-29 63-42q56-38 113-75c-8-36 21-67 55-51 21-33 55-69 77-104q-1-3-5-4c-11 1-26 7-37 9-24 8-54 14-80 22m-422-59c-16 15-28 29-8 46l29 16 46 24 13 5q-28-56-54-114zm401 17 21-25L26 44 68-6l18-21-4-11-75 7Q4-18-3-9a39 39 0 0 1-61-2c-32 21-77 44-111 63 1 26-8 49-38 51h-9l-28 68q-5 12-8 24 9 8 15 18 7 22-8 40c-16 18-40 20-58 4q-16-17-12-41c-39-23-82-44-121-68l-2-2 9 18q25 51 49 101c3 4 37 17 44 21 82 45 115-10 183-51l11-7c-3-37 20-57 57-46zm-357-56q66 39 134 77c13-10 21-14 37-13l8-17 29-75c-17-18-21-33-9-56l1-2q4-5 9-8l2-2c13-6 30-10 42 0l4 3 6 5c11-4 25-13 36-19l75-42v-18l-22-8-122-52-29-12c-21 23-45 27-67 2l-55 31c7 8 34 38 36 44-1 2 1 17 2 22l-2 22 2 3c-8 19-97 94-117 115m79-206c-12-8-5-7-18-10 12 5 6 3 18 10" style="stroke-width:1"/><path fill="#F5EDE4" d="m-238 30 2-2q5 0 7 3-2 4-6 3l-2-1z" style="stroke-width:1"/><path fill="#F5EDE4" d="m-247 38 3 4q2 3-1 6h-1q-2-4-2-8zM-194 28l4 3-2 4h-2l-2-1v-3zM-293 191q8 0 14 3l-2 1q-8 1-14-2z" style="stroke-width:1"/><path fill="#ff6b5f" d="m-397-88 12-5c12 4 10 3 17 11s34 38 36 44c4 6 5 16 6 22 0 5 0 16-4 25-8 20-97 94-117 115-5 4-14 11-18 16l-26 23c-16 15-28 29-8 46l29 16 46 24 13 5c6 3 17 9 25 11 3 4 36 18 44 21 89 34 116-12 183-51l11-7c-3-37 20-57 57-46l1-2q6 6 13 11 0 2 2 3c4 2 79-18 88-21 8-2 28-6 34-9 2-21 21-36 41-35q17 2 28 15c9 11 9 24 8 38v2c17 12 38 37 57 41 15 4 47 3 63 3h616v227c15 0 125-1 129 1l1 1c0 5 1 21-1 24H833V256l-45-1H192c-27-2-60-25-77-46l-6-3c-17 1-26 8-43 0l-13-11q-1-3-5-4c-11 1-26 7-37 9-24 8-54 14-80 22-1 14-4 21-16 29-14 11-25 7-42 5l-5-4q-9-3-15 6c-18 11-77 55-92 60-9 3-22 5-26 5q-13 2-24 2c-15 1-37-4-49-9q-16-6-27-10-8-5-25-11l-9-6c-30-13-65-32-93-46-62-30-54-72-5-110l9-9 23-19q36-34 72-67 18-14 34-32c19-22-3-41-18-58l-16-20q-4-7-4-14z" style="stroke-width:1"/><path fill="#F5EDE4" d="M-511-65c4 0 14 0 16 3l-6 2c-4 0-14 0-17-2l1-1z" style="stroke-width:1"/><path fill="#F5EDE4" d="m-696-32 23 3v1c-6 1-16 0-22-2z" style="stroke-width:1"/><path fill="#F5EDE4" d="M-41 367h9l1 1q-5 3-11 2l-7-1q3-3 8-2" style="stroke-width:1"/><path fill="#F5EDE4" d="M-6 333h3c2 5 0 4 0 9l-1 2-2-1zM875-69h85c51 0 103-4 142 35 47 46 43 125-1 171l-1 1c-38 37-97 34-146 34h-79zm58 52v136c22 0 74 2 93-3 59-15 69-91 19-123-16-11-42-10-61-10ZM784-69h58v240q-3 2-7 1h-41l-15-16-28-29L647 18v154h-57V-69h54c45 48 98 100 140 148zM1235-69h64l64 134c16 33 34 75 51 107h-63c-3-11-16-36-21-47h-128q-10 23-21 47h-61l79-165zm3 118c-4 7-10 20-12 27h82l-28-61c-3-5-11-26-14-29zM401-69h62c13 22 32 65 43 88l73 153h-62q-10-24-22-47H367c-5 14-16 34-20 47h-61zm3 116-13 28h43l39 1-29-63c-2-4-10-24-13-27q-13 31-27 61M1224 232h29l1 96 2-1c7-16 36-24 52-26h20q67 8 79 74v26c-3 30-12 52-39 69-34 21-94 18-116-18l1 29h-29Zm96 224c9-1 13-1 22-4 43-18 46-85 12-112q-19-16-44-14c-80 10-75 134 10 130" style="stroke-width:1"/><path fill="#F5EDE4" d="M1407 375v26l-1-2-2 2c-3-6-3-22 3-26M1308 301h20l-4 2h1l-1 2c-6 3-8 2-15 1v-2l4-2z" style="stroke-width:1"/><path fill="#F5EDE4" d="M1087 301q12-2 24 0 28 1 49 20c22 23 18 60 18 89v72l-30-1v-22h-1q-4 8-11 11c-17 12-28 12-48 13-51 5-91-47-53-88 20-23 82-18 111-18v-16c-5-37-51-42-80-29-11 4-17 9-27 15l-13-22q26-21 61-24m-32 112c-9 12-4 31 8 39 15 10 36 9 53 4 9-2 20-11 25-20 7-11 6-23 6-36-16 0-52-1-67 1q-15 1-25 12" style="stroke-width:1"/><path fill="#F5EDE4" d="M1087 301q12-2 24 0l-8 1 12 3c-6 2-22 2-27 0q2-2 6-2l1-1zM1083 464q9-2 18 1l-1 1c-4 1-17 2-19-1z" style="stroke-width:1"/></svg>