<?xml version="1.0" encoding="utf-8" ?>
<svg xmlns="http://www.w3.org/2000/svg" xmlns:xlink="http://www.w3.org/1999/xlink" width="1739" height="389">

  <!-- Animation Code Starts Here -->

  <!-- Background Shape Fade-in -->
  <g id="background-shape" opacity="0">
	  <path fill="#FEFEFE" d="M0 0L1737.51 0C1738.55 1.58656 1738.84 3.03196 1738.91 4.90081C1740.13 34.8627 1739.02 65.3209 1739.02 95.3246L1739.02 275.07L1739.01 355.144C1739 363.467 1740.37 378.746 1738.71 386.314C1738.5 387.268 1738.05 388.187 1737.51 389L0 389L0 366.947L0 365.864L0 0Z"/>
    <animate attributeName="opacity" from="0" to="1" dur="0.5s" begin="0s" fill="freeze"/>
  </g>

  <!-- Red Hexagon -->
  <g id="hexagon" opacity="0" transform="translate(0, 15)">
	  <path fill="#EE1C24" d="M19.3068 315.054L37.8237 315.04C44.168 332.324 50.2428 349.766 56.9055 366.926L39.7989 366.94L37.3209 357.92L19.2074 357.892L16.4976 366.95L0 366.947L0 365.864C7.4796 351.4 13.6963 330.819 19.3068 315.054Z"/>
	  <path fill="#FEFEFE" d="M28.1697 328.403C30.255 332.323 33.3585 339.969 33.3186 344.348L31.6211 345.125Q30.3443 345.122 29.0684 345.076C26.803 344.975 26.0327 345.207 24.4497 343.475C23.4408 338.799 26.6288 332.824 28.1697 328.403Z"/>
    <animate attributeName="opacity" from="0" to="1" dur="0.8s" begin="0.1s" fill="freeze"/>
    <animateTransform attributeName="transform" type="translate" from="0 15" to="0 0" dur="0.8s" begin="0.1s" fill="freeze"/>
  </g>

  <!-- Shape 3 (Abstract) -->
  <g id="shape3" opacity="0">
	  <path d="M487.947 57.3269C501.444 55.5184 516.882 56.9167 530.546 56.908C568.941 56.8837 618.007 52.864 653.944 68.1773C676.656 77.8551 693.473 97.5657 702.566 120.221C714.121 149.013 713.93 185.099 701.725 213.66C694.226 231.211 678.475 252.965 660.145 260.324C659.45 261.596 656.727 262.814 655.415 263.499C642.885 270.037 628.463 273.456 614.536 275.338C602.734 276.933 496.123 278.602 489.527 276.36C489.128 276.224 489.092 276.296 488.699 276.406C488.046 275.698 488.078 274.724 487.979 273.805C491.823 270.2 500.066 272.302 505.132 270.976C510.011 269.7 513.946 266.826 516.477 262.438C518.892 258.253 519.713 253.169 520.08 248.405C521.627 228.358 520.293 207.373 520.318 187.221L520.381 126.786C520.391 110.332 522.544 90.2224 518.094 74.4512C513.548 58.3425 497.993 66.143 489.133 60.9933C488.505 60.6286 488.147 58.1371 487.947 57.3269Z"/>
	  <path fill="#FEFEFE" d="M570.096 70.0679C585.928 68.3155 602.068 69.0542 617.146 74.4883Q618.101 74.8415 619.047 75.2181Q619.993 75.5947 620.93 75.9943Q621.866 76.394 622.793 76.8165Q623.719 77.239 624.635 77.6841Q625.551 78.1292 626.455 78.5967Q627.36 79.0641 628.253 79.5536Q629.146 80.0431 630.026 80.5543Q630.907 81.0656 631.775 81.5982Q632.643 82.1309 633.497 82.6847Q634.352 83.2386 635.193 83.8132Q636.033 84.3878 636.859 84.9828Q637.686 85.5779 638.497 86.193Q639.309 86.8082 640.105 87.443Q640.901 88.0779 641.682 88.7321Q642.462 89.3863 643.226 90.0595Q643.99 90.7326 644.737 91.4243Q645.485 92.116 646.215 92.8258Q646.945 93.5356 647.658 94.2632Q648.37 94.9907 649.065 95.7354Q649.759 96.4802 650.435 97.2418Q651.111 98.0034 651.769 98.7813Q652.426 99.5592 653.064 100.353Q653.701 101.147 654.32 101.956Q654.938 102.765 655.536 103.589Q656.134 104.414 656.712 105.252Q657.29 106.091 657.847 106.943Q658.404 107.796 658.94 108.662Q659.476 109.528 659.991 110.406Q660.506 111.285 660.999 112.176Q661.492 113.068 661.963 113.971Q662.434 114.873 662.882 115.788Q663.331 116.702 663.757 117.627C676.331 144.489 677.001 181.06 666.881 208.787C661.895 222.449 650.34 242.054 636.624 248.438C636.063 249.947 633.693 251.284 632.359 252.217C608.305 269.052 577.551 265.135 550.464 260.37C550.608 260.092 550.616 260.092 550.723 259.836C550.767 259.731 550.807 259.624 550.85 259.518C550.92 259.349 550.995 259.182 551.06 259.012C552.866 254.251 552.476 96.2836 551.726 78.4313C551.656 76.7541 551.314 75.3161 550.616 73.7895Q560.371 72.0088 570.096 70.0679Z"/>
    <animate attributeName="opacity" from="0" to="1" dur="1s" begin="0.5s" fill="freeze"/>
  </g>

  <!-- Shape 4 (Abstract) -->
  <g id="shape4" opacity="0">
	  <path d="M838.112 52.2339C840.238 52.0267 843.066 51.4008 845.003 52.4904C847.167 53.7079 850.591 64.0441 851.772 66.8784L896.688 174.327C904.846 193.808 925.507 249.388 936.805 262.137C945.122 271.522 951.767 267.417 958.779 272.746C960.034 273.7 959.906 274.064 960.14 275.55L959.111 276.704C950.783 277.571 876.977 277.826 873.189 276.261C872.537 275.992 872.368 275.037 872.105 274.396C872.281 273.996 872.745 272.562 873.015 272.339C875.843 270 886.038 272.307 891.574 266.204C894.127 263.389 894.922 259.467 894.713 255.764C894.304 248.52 878.804 207.09 874.259 203.119C874.213 203.079 874.166 203.041 874.119 203.001L841.267 202.999L789.057 202.987C791.153 211.025 766.964 245.396 769.933 259.859C772.511 272.418 787.484 268 794.962 273.219C795.549 273.629 795.508 274.57 795.63 275.261C795.379 275.598 794.947 276.362 794.563 276.451C788.258 277.911 741.207 277.551 732.825 276.876C730.283 276.672 727.689 276.428 725.482 275.04L725.46 273.766C730.603 269.169 738.896 269.272 744.409 264.201C749.809 259.233 753.168 251.419 756.293 244.912C764.661 227.485 837.87 57.4736 838.112 52.2339Z"/>
	  <path fill="#FEFEFE" d="M831.921 104.042L832.398 103.893L834.055 104.85C838.783 113.66 869.583 185.829 868.937 191.013L831.077 191.035L794.268 191.027C794.41 190.918 794.553 190.81 794.688 190.692C797.509 188.21 831.608 108.037 831.921 104.042Z"/>
    <animate attributeName="opacity" from="0" to="1" dur="1s" begin="0.6s" fill="freeze"/>
  </g>

  <!-- Shape 1 (Abstract) -->
  <g id="shape1" opacity="0">
	  <path d="M117.054 51.8758C118.898 51.8526 122.252 51.573 123.512 53.0238C128.128 58.3414 133.064 75.233 136.165 82.4834L180.218 187.603C187.237 204.368 203.689 249.8 213.991 261.39C222.332 270.775 227.365 268.151 236.621 272.38C237.864 273.942 237.885 273.98 237.809 275.974C236.976 276.693 236.219 276.97 235.118 276.991C217.787 277.328 200.36 276.945 183.02 276.943C173.54 276.942 163.366 277.759 153.977 276.968C152.262 276.824 151.701 276.79 150.44 275.576L150.766 273.329C154.072 269.867 160.604 271.465 164.837 269.667C167.902 268.365 170.315 265.738 171.546 262.672C176.538 250.245 158.462 215.466 153.184 203.002L121.849 202.999L68.2667 202.987C61.9332 217.5 51.1703 237.487 48.4352 252.68C47.8183 256.107 47.3749 260.666 49.5246 263.676C54.4657 270.597 64.9734 270.951 72.666 272.102L73.5393 273.994L72.9491 275.447C71.2621 276.621 69.5035 276.928 67.4931 277.092C60.97 277.623 54.1708 276.846 47.6008 276.863C33.2597 276.9 18.843 277.35 4.51288 276.806C3.68313 275.232 3.99951 274.489 4.26219 272.778C7.85302 269.744 12.7802 269.409 17.0181 267.666C21.2628 265.921 24.7467 262.504 27.1279 258.634C39.7313 238.151 50.5287 207.68 60.1104 185.156L117.054 51.8758Z"/>
	  <path fill="#FEFEFE" d="M110.921 103.317C114.966 107.014 143.828 180.12 148.35 191.015L111.659 191.035L73.3418 191.031L110.921 103.317Z"/>
    <animate attributeName="opacity" from="0" to="1" dur="1s" begin="0.3s" fill="freeze"/>
  </g>

  <!-- Character B -->
  <g id="char-b" opacity="0" transform="translate(0, 15)">
	  <path fill="#472E2F" d="M1597.43 68.3721C1598.53 68.3621 1599.66 68.5186 1600.75 68.6109C1600.89 68.9454 1601.03 69.3447 1601.03 69.7081C1601.06 74.0349 1577.22 154.636 1573.9 163.772C1573.24 165.596 1572.25 167.185 1570.93 168.605C1580.52 164.548 1588.27 151.542 1601.59 146.706C1611.39 143.145 1624.18 142.723 1633.71 147.218C1641.77 151.018 1647.33 158.596 1650.22 166.854C1656.58 184.991 1651.3 207.372 1643.23 224.109C1634.25 242.728 1616.9 265.322 1596.61 272.38C1593.52 275.876 1582.32 278.765 1577.69 279.433C1557.13 282.397 1538.54 274.911 1522.29 262.711C1527.53 251.11 1572.78 91.1806 1572.47 87.6017C1571.47 76.2272 1556.5 83.6573 1550.76 78.7809L1550.89 77.0865C1553.69 73.8112 1590.4 69.7369 1597.43 68.3721Z"/>
	  <path fill="#FEFEFE" d="M1601.82 158.403C1603.43 158.268 1605.05 158.151 1606.66 158.143C1611.8 158.116 1617.06 160.505 1620.67 164.117C1626.79 170.236 1628.51 179.172 1628.53 187.52C1628.58 211.272 1618.65 240.828 1601.66 257.85C1592.86 266.661 1581.58 272.689 1568.96 272.704C1559.55 272.501 1551.84 268.286 1543.42 264.56C1548.02 260.262 1562.29 198.139 1569.77 184.523C1576.94 171.47 1587.55 162.578 1601.82 158.403Z"/>
	  <path fill="#EE1C24" d="M1595.82 328.272C1601.25 327.921 1608 327.332 1613.2 329.132C1616.58 330.301 1619.13 332.352 1620.65 335.626C1621.96 338.433 1623.92 364.178 1622.93 366.948C1620.14 366.936 1613.79 367.795 1611.37 366.806C1609.91 366.212 1609.38 364.036 1608.76 362.652C1604.77 362.918 1601.71 366.628 1597.93 367.894C1593.33 369.434 1587.26 366.877 1583.16 364.813C1582.48 363.431 1581.78 362.003 1581.36 360.519C1580.52 357.6 1580.71 354.312 1582.26 351.649C1586.02 345.164 1597.01 345.655 1603.51 343.778C1605.45 343.219 1607.21 341.972 1608.2 340.201C1604.88 333.904 1591.22 344.398 1584.82 341.694C1582.8 340.838 1581.99 340.118 1581.21 338.103C1581.4 337.502 1581.65 336.888 1581.99 336.361C1584.77 332.09 1591.11 329.239 1595.82 328.272Z"/>
	  <path fill="#FEFEFE" d="M1605.53 349.505C1606.37 349.687 1607.19 350.104 1607.99 350.427L1608.57 352.18C1608.13 353.263 1607.61 354.198 1606.73 354.984C1603.82 357.608 1601.39 358.034 1597.57 357.869C1596.28 357.203 1595.81 356.184 1595.14 354.962L1595.88 353.141C1598.55 351.071 1602.32 350.396 1605.53 349.505Z"/>
	  <path fill="#EE1C24" d="M1534.69 315.531C1539.57 314.703 1544.96 315.066 1549.92 315.054C1550.51 315.972 1551 317.025 1551.2 318.107C1552.16 323.46 1552.38 350.396 1549.97 354.101L1575.34 354.078C1576.39 355.605 1576.69 357.861 1576.79 359.683C1576.91 362.109 1576.82 364.6 1575.13 366.493C1569.35 368.42 1541.54 366.995 1534.06 366.947C1534.16 366.794 1534.2 366.724 1534.3 366.549C1536.34 362.686 1536.36 321.384 1534.69 315.531Z"/>
    <animate attributeName="opacity" from="0" to="1" dur="1s" begin="0.9s" fill="freeze"/>
    <animateTransform attributeName="transform" type="translate" from="0 15" to="0 0" dur="1s" begin="0.9s" fill="freeze"/>
  </g>

  <!-- Shape 2 (Abstract) -->
  <g id="shape2" opacity="0">
	  <path d="M237.468 56.9714L297.485 56.9404C311.835 74.522 429.256 216.185 430.625 221.414C430.693 221.311 430.761 221.209 430.827 221.105C431.73 219.682 432.001 218.16 432.078 216.506C433.172 192.997 432.078 168.882 432.086 145.319C432.092 129.014 434.113 90.2706 430.627 76.2196C425.998 57.5607 409.195 65.8183 401.233 60.7599C400.663 60.3975 400.609 59.3113 400.45 58.6578L401.402 57.7014C408.626 56.5233 474.276 55.7827 477.848 57.8096L477.963 60.7096C475.92 62.7912 467.83 62.102 464.404 62.6699C457.484 63.8171 451.507 67.2314 448.853 73.9862C444.864 84.1356 446.676 116.102 446.67 128.105L446.667 231.271C446.672 246.517 447.782 262.605 446.813 277.77C446.76 278.614 446.374 279.318 445.893 279.994C443.31 281.04 441.922 280.621 439.187 280.303C438.315 276.002 311.767 123.753 295.513 103.883L295.454 194.583C295.447 211.151 294.984 227.873 295.619 244.423C297.112 283.357 316.693 264.717 326.679 273.987L326.681 275.901C324.171 277.623 319.518 276.929 316.433 276.943C309.29 276.976 252.56 277.669 250.752 276.627C250.391 276.42 249.865 275.748 249.552 275.438C251.428 269.82 268.936 272.08 274.289 266.836C277.995 263.205 279.569 256.941 280.239 251.912C282.739 233.161 281.058 212.437 281.013 193.44L281.011 86.2261C273.439 77.8533 264.479 68.0934 252.811 65.8936C248.029 64.992 243.276 65.1383 238.535 63.8046C237.282 61.7143 237.565 59.381 237.468 56.9714Z"/>
    <!-- No separate fill path for this one in the original -->
    <animate attributeName="opacity" from="0" to="1" dur="1s" begin="0.4s" fill="freeze"/>
  </g>

  <!-- Character S -->
  <g id="char-s" opacity="0" transform="translate(0, 15)">
	  <path fill="#472E2F" d="M1446.43 146.512C1450.4 146.17 1454.49 145.781 1458.47 146.211C1464.65 146.881 1471.77 149.408 1475.7 154.402C1477.75 157 1479.76 160.92 1479.35 164.302C1482.32 160.655 1484.49 154.42 1484.19 149.742C1491.29 149.112 1499.54 147.958 1506.33 145.791C1508.63 153.021 1479.91 241.491 1476.9 259.069C1476.43 261.808 1475.71 264.21 1477.36 266.551C1485.32 269.644 1487.4 251.5 1494.32 249.188C1496.28 249.673 1496.45 249.711 1497.72 251.264C1497.7 251.887 1497.64 252.49 1497.45 253.087C1494.76 261.491 1480.73 274.477 1472.75 278.27C1469.15 279.98 1464.62 281.255 1460.72 279.819C1453.79 277.273 1454.4 272.006 1451.83 266.271C1452.13 265.872 1452.38 265.457 1452.58 265.005C1454.82 260.031 1459.3 243.259 1457.39 238.37C1457.34 238.852 1457.24 239.301 1457.14 239.772C1456.99 240.423 1456.81 241.036 1456.5 241.629C1449.93 254.042 1422.97 274.058 1409.05 278.217C1400.7 280.712 1391 281.364 1383.15 277.037C1376.36 273.3 1371.77 266.322 1369.65 259.005C1364.25 240.413 1372.07 218.11 1381.03 201.907C1395.37 175.992 1417.63 154.803 1446.43 146.512Z"/>
	  <path fill="#FEFEFE" d="M1450.47 153.307C1455.83 152.846 1461.25 153.397 1465.77 156.539C1470.19 159.602 1472.51 164.285 1473.4 169.498C1476.93 190.401 1467.32 214.294 1455.48 231.051C1445.7 244.882 1431.32 259.444 1413.97 262.406Q1413.05 262.558 1412.12 262.63Q1411.19 262.701 1410.26 262.691Q1409.33 262.681 1408.4 262.59Q1407.47 262.499 1406.56 262.327Q1405.64 262.155 1404.74 261.904Q1403.85 261.652 1402.97 261.324Q1402.1 260.995 1401.26 260.592Q1400.42 260.188 1399.62 259.713C1395.77 257.448 1393.5 253.526 1392.43 249.285C1387.74 230.693 1398.77 206.626 1407.96 191.07C1417.66 174.671 1431.32 158.225 1450.47 153.307Z"/>
	  <path fill="#EE1C24" d="M1476.96 328.272C1483.36 327.902 1491.85 327.171 1497.26 331.265C1499.47 332.94 1500.64 335.113 1501.01 337.832C1497.54 338.226 1492.35 339.342 1488.98 338.662C1486.71 338.203 1485.18 335.675 1482.41 335.898C1480.33 336.066 1478.62 336.975 1477.27 338.566C1478.07 342.232 1495.92 343.948 1500.88 348.104C1502.4 349.381 1503.64 351.116 1503.77 353.155C1503.99 356.561 1501.78 360.502 1499.52 362.91C1495.23 367.473 1489.03 367.692 1483.2 367.878C1480.73 367.906 1478.21 367.843 1475.78 367.364C1471.64 366.546 1464.99 363.57 1462.59 360.044C1462.42 358.82 1462.32 358.058 1463.16 357.02C1469.32 349.437 1479.47 360.697 1486.65 359.831C1488.5 358.599 1488.76 358.516 1489.49 356.442C1485.69 350.474 1474.97 352.359 1469.07 348.905C1466.94 347.656 1465.53 345.849 1464.92 343.446C1464.2 340.607 1464.34 336.77 1465.93 334.23C1468.24 330.532 1472.99 329.221 1476.96 328.272Z"/>
	  <path fill="#EE1C24" d="M1408.02 328.272C1414.2 327.628 1421.69 327.179 1426.99 330.807C1429.09 332.242 1431.77 334.122 1432.27 336.759C1427.08 342.946 1417.58 335.053 1411.14 336.321C1409.64 336.616 1409.52 337.155 1408.7 338.339C1409.95 343.105 1426.76 343.395 1432.77 348.83C1434.21 350.136 1435.23 351.746 1435.26 353.754C1435.3 356.953 1432.74 360.368 1430.66 362.587C1426.18 367.364 1420.56 367.701 1414.42 367.872C1410.42 367.978 1405.76 367.753 1402.06 366.186C1399.35 365.037 1395.74 362.322 1394.67 359.506C1394.19 358.241 1394.67 357.813 1395.21 356.64C1399.12 354.452 1403.53 354.992 1407.72 355.977C1408.83 357.057 1410 358.131 1411.45 358.719C1414.5 359.952 1417.74 359.873 1420.73 358.557C1421.1 358.393 1421.22 357.72 1421.37 357.339C1417.91 351.291 1405.75 352.163 1400.14 348.811C1397.78 347.402 1396.34 345.064 1395.72 342.431C1395.12 339.865 1395.24 336.976 1396.7 334.709C1399.31 330.641 1403.55 329.275 1408.02 328.272Z"/>
	  <path fill="#EE1C24" d="M1441.64 329.121L1455.03 328.976C1455.44 329.736 1455.83 330.596 1456.03 331.443C1456.95 335.359 1457.36 360.71 1456.08 364.3C1455.83 365.007 1455.05 365.995 1454.65 366.658C1450.56 367.584 1444.83 366.93 1440.56 366.948C1443.66 362.148 1441.87 336.096 1441.64 329.121Z"/>
	  <path fill="#EE1C24" d="M1441.1 315.531C1444.47 314.966 1450.57 314.154 1453.76 315.236C1455.71 315.898 1455.86 316.416 1456.71 318.159C1456.48 320.693 1455.94 322.433 1454.74 324.676C1454.54 324.763 1454.36 324.841 1454.14 324.88C1451.31 325.381 1446.3 326.318 1443.86 324.645C1441.61 321.707 1441.73 319.12 1441.1 315.531Z"/>
    <animate attributeName="opacity" from="0" to="1" dur="1s" begin="0.8s" fill="freeze"/>
    <animateTransform attributeName="transform" type="translate" from="0 15" to="0 0" dur="1s" begin="0.8s" fill="freeze"/>
  </g>

  <!-- Character H -->
  <g id="char-h" opacity="0" transform="translate(0, 15)">
	  <path fill="#472E2F" d="M1239.45 78.5638C1246.79 77.2351 1317.02 77.0883 1321.26 79.027L1321.37 80.8343C1317.67 83.9022 1308.77 83.3763 1303.93 85.0752C1297.43 87.3574 1292.62 92.1984 1289.75 98.3957C1287.02 104.294 1285.61 111.328 1283.81 117.585L1273.37 153.931C1264.05 186.385 1253.04 219.101 1245.54 251.986C1244.88 254.884 1243.93 258.045 1245.09 260.938C1245.91 262.984 1247.85 264.691 1249.85 265.548C1257.07 268.65 1269.59 267.041 1277.41 266.927C1302.41 266.564 1321.37 262.603 1336.08 240.808C1338.85 236.703 1340.86 232.09 1343.37 227.822C1344.92 225.186 1346.52 221.903 1349.52 220.736C1350.59 220.32 1350.82 220.221 1351.85 220.661L1352.39 222.237C1352.08 224.828 1351.51 226.115 1349.77 228.057C1349.88 228.423 1349.99 228.812 1350.01 229.197C1350.29 233.519 1335.52 274.002 1332.78 276.929L1231.43 276.944C1219.17 276.941 1198.83 278.463 1187.36 276.462L1187.2 274.618C1191 270.421 1197.87 271.405 1203.1 270.333C1207.9 269.348 1211.74 265.31 1214.3 261.355C1222.17 249.205 1236.78 190.176 1241.65 173.1C1247.9 151.164 1255.51 128.814 1260.28 106.546C1261.27 101.946 1262.5 96.0077 1261.44 91.3713C1259.05 80.9159 1246.44 86.1674 1239.85 82.108L1239.45 78.5638Z"/>
	  <path fill="#EE1C24" d="M1186.13 315.531C1192.08 314.472 1198.82 315.043 1204.88 315.039C1205.26 315.418 1205.59 315.82 1205.88 316.275C1209.06 321.336 1224.54 362.859 1223.68 366.929L1207.05 366.943C1207.14 366.646 1207.21 366.356 1207.25 366.048C1207.57 363.322 1205.85 360.561 1204.22 358.55C1200.56 356.612 1190.61 357.87 1186.2 357.896Q1186.34 358.593 1186.39 359.303C1186.56 361.896 1185.28 365.05 1183.56 366.95L1166.87 366.935C1167.22 366.64 1167.54 366.335 1167.83 365.977C1170.9 362.187 1186.46 319.005 1186.13 315.531Z"/>
	  <path fill="#FEFEFE" d="M1194.85 329.968C1195.2 329.984 1195.54 330.014 1195.87 330.139C1197.79 330.873 1199.38 335.719 1200.13 337.6C1201.13 340.129 1201.25 342.319 1200.17 344.782L1196.2 344.965C1194.4 344.947 1193.58 345.114 1192.06 344.031C1191.22 339.422 1194.87 334.949 1194.86 330.176C1194.86 330.107 1194.86 330.038 1194.85 329.968Z"/>
	  <path fill="#EE1C24" d="M1252.22 328.271C1255.82 327.867 1259.58 327.571 1262.81 329.546C1266.14 331.586 1268.28 335.593 1269.16 339.301C1270.57 345.241 1271.14 361.758 1267.94 366.944L1253.42 366.953C1253.88 366.236 1254.32 365.401 1254.55 364.581C1255.95 359.694 1256.26 345.744 1253.75 341.634C1252.57 339.719 1251.72 339.554 1249.65 339.05C1246.97 339.42 1245.48 340.963 1243.55 342.71Q1243.68 343.084 1243.77 343.471C1244.84 348.171 1244.95 362.938 1242.44 366.951L1227.96 366.948C1227.99 366.896 1228.02 366.844 1228.04 366.79C1228.09 366.701 1228.13 366.608 1228.17 366.519C1228.49 365.893 1228.82 365.289 1229.04 364.618C1230.68 359.747 1230.29 333.23 1228.16 328.99C1232.14 328.908 1239.35 327.926 1242.66 329.922L1243.44 333.364C1246.3 331.372 1249.02 329.68 1252.22 328.271Z"/>
	  <path fill="#EE1C24" d="M1290.87 328.272C1296.21 327.927 1302.71 327.374 1307.86 329.025C1311.22 330.099 1313.86 332.111 1315.45 335.288C1316.88 338.164 1318.81 364.315 1317.93 366.943C1314.16 367.025 1309.44 367.659 1305.83 366.567C1305.49 366.462 1304.47 364.269 1304.23 363.807L1304.01 364.701L1303.89 362.667C1300.34 362.902 1296.94 366.231 1293.66 367.616C1289.4 369.411 1283.16 367.166 1279.09 365.547C1278.17 364.18 1277.14 362.724 1276.52 361.188C1275.46 358.55 1275.36 355.357 1276.51 352.729C1280.02 344.708 1293.24 345.927 1300.25 343.023C1301.83 342.368 1302.35 341.943 1302.98 340.414L1301.75 339.06C1294.99 336.823 1292.21 340.482 1286.05 341.972C1282.58 342.811 1280.3 342.206 1277.33 340.356C1277.08 338.266 1277.64 336.949 1278.75 335.161C1281.78 330.296 1285.65 329.441 1290.87 328.272Z"/>
	  <path fill="#FEFEFE" d="M1300.47 349.505L1302.85 350.323L1303.59 352.074C1302.99 353.53 1302.33 354.603 1301.07 355.561C1297.96 357.92 1295.5 358.175 1291.71 357.681C1290.46 355.671 1290.28 355.651 1290.7 353.348C1292.93 351.005 1297.42 350.35 1300.47 349.505Z"/>
	  <path fill="#EE1C24" d="M1325.98 315.531C1330.44 314.697 1335.63 315.088 1340.19 315.055C1340.66 315.739 1341.05 316.467 1341.21 317.287C1342.34 323.253 1342.53 362.568 1340.08 366.302C1337.02 367.958 1329.1 366.986 1325.44 366.952C1325.65 366.65 1325.84 366.342 1326.01 366.012C1328.37 361.368 1327.8 320.751 1325.98 315.531Z"/>
    <animate attributeName="opacity" from="0" to="1" dur="1s" begin="0.7s" fill="freeze"/>
    <animateTransform attributeName="transform" type="translate" from="0 15" to="0 0" dur="1s" begin="0.7s" fill="freeze"/>
  </g>

  <!-- Character C -->
  <g id="char-c" opacity="0" transform="translate(0, 15)">
	  <path fill="#472E2F" d="M1684.75 250.074Q1685.12 250.02 1685.48 249.983Q1685.85 249.947 1686.22 249.929Q1686.59 249.911 1686.96 249.911Q1687.33 249.911 1687.7 249.929Q1688.07 249.947 1688.44 249.983Q1688.81 250.02 1689.18 250.074Q1689.54 250.129 1689.9 250.201Q1690.27 250.273 1690.63 250.363Q1690.99 250.453 1691.34 250.561Q1691.69 250.669 1692.04 250.793Q1692.39 250.918 1692.73 251.06Q1693.08 251.202 1693.41 251.36Q1693.74 251.519 1694.07 251.694Q1694.4 251.868 1694.71 252.059Q1695.03 252.249 1695.34 252.455Q1695.65 252.661 1695.95 252.882Q1696.24 253.103 1696.53 253.338Q1696.81 253.573 1697.09 253.822Q1697.36 254.07 1697.62 254.332Q1697.89 254.594 1698.13 254.869Q1698.38 255.144 1698.62 255.43Q1698.85 255.716 1699.07 256.014Q1699.29 256.312 1699.5 256.62Q1699.7 256.928 1699.89 257.245Q1700.08 257.563 1700.26 257.89Q1700.43 258.217 1700.59 258.552Q1700.75 258.886 1700.89 259.229Q1701.03 259.571 1701.15 259.92Q1701.28 260.269 1701.39 260.623Q1701.49 260.977 1701.58 261.337Q1701.67 261.696 1701.74 262.059Q1701.82 262.423 1701.87 262.789Q1701.92 263.155 1701.96 263.524Q1702 263.892 1702.01 264.262Q1702.03 264.632 1702.03 265.002Q1702.03 265.372 1702.01 265.742Q1701.99 266.112 1701.96 266.48Q1701.92 266.849 1701.86 267.215Q1701.81 267.581 1701.74 267.944Q1701.66 268.307 1701.57 268.666Q1701.48 269.025 1701.38 269.379Q1701.27 269.734 1701.14 270.082Q1701.02 270.43 1700.87 270.772Q1700.73 271.114 1700.57 271.449Q1700.41 271.783 1700.24 272.109Q1700.06 272.436 1699.87 272.753Q1699.68 273.07 1699.48 273.378Q1699.27 273.685 1699.05 273.982Q1698.83 274.279 1698.59 274.565Q1698.36 274.851 1698.11 275.125Q1697.86 275.398 1697.6 275.66Q1697.34 275.921 1697.06 276.169Q1696.79 276.417 1696.5 276.652Q1696.21 276.886 1695.92 277.106Q1695.62 277.326 1695.31 277.531Q1695 277.736 1694.68 277.926Q1694.37 278.116 1694.04 278.29Q1693.71 278.464 1693.38 278.621Q1693.04 278.779 1692.7 278.92Q1692.36 279.061 1692.01 279.185Q1691.66 279.309 1691.31 279.416Q1690.95 279.522 1690.59 279.611Q1690.23 279.701 1689.87 279.772Q1689.51 279.844 1689.14 279.897Q1688.77 279.951 1688.41 279.986Q1688.04 280.022 1687.67 280.039Q1687.3 280.057 1686.93 280.056Q1686.56 280.055 1686.19 280.036Q1685.82 280.017 1685.45 279.981Q1685.09 279.944 1684.72 279.889Q1684.35 279.834 1683.99 279.761Q1683.63 279.688 1683.27 279.598Q1682.91 279.507 1682.56 279.399Q1682.21 279.291 1681.86 279.166Q1681.51 279.041 1681.17 278.899Q1680.83 278.757 1680.49 278.598Q1680.16 278.439 1679.83 278.264Q1679.51 278.09 1679.19 277.899Q1678.87 277.708 1678.57 277.502Q1678.26 277.296 1677.96 277.076Q1677.67 276.855 1677.38 276.62Q1677.1 276.385 1676.82 276.136Q1676.55 275.887 1676.29 275.625Q1676.03 275.363 1675.78 275.089Q1675.53 274.815 1675.3 274.528Q1675.06 274.242 1674.84 273.945Q1674.62 273.647 1674.42 273.34Q1674.21 273.032 1674.02 272.714Q1673.83 272.397 1673.66 272.07Q1673.49 271.744 1673.33 271.409Q1673.17 271.075 1673.03 270.733Q1672.89 270.391 1672.76 270.043Q1672.64 269.694 1672.53 269.34Q1672.43 268.986 1672.34 268.627Q1672.25 268.269 1672.18 267.906Q1672.1 267.543 1672.05 267.177Q1672 266.811 1671.96 266.443Q1671.92 266.075 1671.91 265.706Q1671.89 265.336 1671.89 264.967Q1671.89 264.597 1671.91 264.228Q1671.93 263.858 1671.96 263.49Q1672 263.122 1672.06 262.757Q1672.11 262.391 1672.18 262.028Q1672.25 261.666 1672.34 261.307Q1672.44 260.949 1672.54 260.595Q1672.65 260.241 1672.78 259.893Q1672.9 259.545 1673.04 259.204Q1673.18 258.862 1673.34 258.528Q1673.5 258.194 1673.67 257.868Q1673.85 257.542 1674.04 257.225Q1674.23 256.908 1674.44 256.601Q1674.64 256.293 1674.86 255.996Q1675.08 255.7 1675.32 255.414Q1675.55 255.128 1675.8 254.854Q1676.05 254.581 1676.31 254.319Q1676.57 254.058 1676.85 253.81Q1677.12 253.562 1677.41 253.327Q1677.69 253.093 1677.99 252.873Q1678.29 252.653 1678.59 252.447Q1678.9 252.242 1679.22 252.052Q1679.53 251.862 1679.86 251.688Q1680.19 251.514 1680.52 251.356Q1680.86 251.198 1681.2 251.057Q1681.54 250.915 1681.89 250.791Q1682.23 250.666 1682.59 250.559Q1682.94 250.452 1683.3 250.362Q1683.66 250.272 1684.02 250.2Q1684.38 250.128 1684.75 250.074Z"/>
	  <path fill="#EE1C24" d="M1631.72 315.531C1636.16 314.691 1641.37 315.086 1645.9 315.053C1648.47 319.372 1647.11 326.714 1646.47 331.509C1651.47 329.794 1655.75 327.077 1661.25 328.131C1665.13 328.874 1668.36 331.278 1670.54 334.528C1674.11 339.827 1674.97 346.921 1673.75 353.097C1672.93 357.193 1671.53 360.986 1667.96 363.376C1667.19 365.231 1665.32 366.633 1663.5 367.405C1657.76 369.841 1652.09 365.557 1646.92 363.543C1646.32 364.343 1645.69 365.146 1644.96 365.833C1642.47 368.18 1634.53 367.042 1631.12 366.951C1631.29 366.708 1631.29 366.714 1631.46 366.42C1633.29 363.18 1633.3 320.85 1631.72 315.531Z"/>
	  <path fill="#FEFEFE" d="M1650.39 338.463C1651.72 338.201 1653.32 337.848 1654.64 338.243C1656.46 338.785 1657.86 340.337 1658.68 341.994C1660.44 345.531 1660.22 349.504 1658.91 353.156C1657.87 356.036 1656.23 356.711 1653.66 357.935C1652.67 358.139 1650.75 357.388 1649.9 356.797C1648.2 355.61 1647.51 353.332 1647.24 351.369C1646.58 346.527 1647.47 342.347 1650.39 338.463Z"/>
	  <path fill="#EE1C24" d="M1680.6 352.053L1694.47 351.991C1695.71 354.104 1695.93 356.778 1695.95 359.186C1695.97 361.819 1696.05 364.647 1694.1 366.65C1689.7 367.64 1683.71 366.942 1679.12 366.948C1681.37 363.43 1680.54 356.301 1680.6 352.053Z"/>
    <animate attributeName="opacity" from="0" to="1" dur="1s" begin="1.0s" fill="freeze"/>
    <animateTransform attributeName="transform" type="translate" from="0 15" to="0 0" dur="1s" begin="1.0s" fill="freeze"/>
  </g>

  <!-- Other Misc Red/White elements (Grouped for simplicity) -->
  <g id="misc-elements" opacity="0">
    <path fill="#EE1C24" d="M787.723 315.53C796.81 314.011 810.411 314.02 819.429 315.799C824.871 316.872 828.936 318.952 832.043 323.659C836.734 330.768 837.736 341.188 835.963 349.437C834.983 353.994 833.327 357.959 829.309 360.547C829.174 361.34 828.751 361.858 828.189 362.414C820.854 369.686 797.143 367.032 787.12 366.946C787.331 366.645 787.524 366.337 787.691 366.008C790.095 361.277 789.473 320.806 787.723 315.53Z"/>
	  <path fill="#FEFEFE" d="M803.883 327.421C806.384 327.063 808.96 326.67 811.471 327.132C814.604 327.709 816.855 329.794 818.581 332.373C821.237 336.343 821.684 340.319 820.722 344.944C820.164 347.627 819.56 350.465 817.133 352.055L815.795 353.839C812.105 355.561 807.618 355.116 803.631 355.106C805.926 349.308 805.814 333.442 803.883 327.421Z"/>
	  <path fill="#EE1C24" d="M421.703 315.514C426.335 314.671 431.698 315.083 436.431 315.05C437.102 315.424 437.616 315.864 438.138 316.427C442.099 320.702 455.724 338.726 455.563 343.857C456.117 342.938 456.588 341.935 456.868 340.896C458.253 335.768 458.452 319.788 455.826 315.069L470.837 315.052C471.433 315.971 471.915 317.023 472.117 318.105C473.249 324.156 473.327 362.775 470.77 366.499C467.302 367.887 460.054 366.965 456.149 366.946C456.164 366.572 456.159 366.186 456.086 365.817C455.268 361.675 439.443 340.635 435.905 338.331C436.361 339.116 436.763 339.97 437.022 340.841C438.518 345.872 438.59 362.19 436.129 366.945L421.117 366.948C421.329 366.646 421.522 366.338 421.689 366.009C424.084 361.295 423.462 320.752 421.703 315.514Z"/>
	  <path fill="#EE1C24" d="M1101.63 314.682C1106.32 314.125 1111.7 313.391 1116.26 314.928C1120.08 316.221 1123.93 318.655 1125.76 322.379C1126.83 324.572 1127.05 326.933 1126.23 329.25C1124.43 334.34 1119.03 337.491 1114.42 339.647C1117.75 341.235 1119.77 344.388 1123.79 344.52C1125.37 344.571 1125.87 343.614 1126.95 342.581C1129.72 342.059 1132.96 343.587 1135.57 344.478C1135.65 345.322 1135.71 346.171 1135.67 347.02C1135.55 349.782 1133.72 351.68 1131.81 353.462C1134.58 354.493 1137.91 355.909 1139.51 358.493C1139.52 358.885 1139.5 359.303 1139.38 359.678C1138.47 362.527 1135.66 365.718 1132.95 366.947C1131.71 367.508 1130 366.441 1128.73 365.949C1128.47 365.444 1128.13 365.08 1127.74 364.664C1127.12 363.998 1125.59 362.765 1124.57 362.905C1117.22 363.917 1114.87 368.455 1104.89 368.084C1098.82 367.858 1091.62 366.297 1087.37 361.642C1085.21 359.282 1084.11 356.436 1084.3 353.233C1084.81 344.656 1090.36 342.991 1095.92 338.129C1096.28 333.947 1090.85 328.662 1092.75 322.653C1093.96 318.815 1098.34 316.428 1101.63 314.682Z"/>
	  <path fill="#FEFEFE" d="M1101.55 346.107L1104 346.109C1107.41 348.375 1111.55 350.562 1113.7 354.151C1114.12 354.858 1113.8 355.361 1113.6 356.12L1110.14 357.15C1108.07 358.355 1104.95 358.115 1102.72 357.537C1100.69 355.903 1099.73 354.747 1099.16 352.11C1098.71 350.001 1100.46 347.783 1101.55 346.107Z"/>
	  <path fill="#FEFEFE" d="M1106.96 322.325C1109.26 321.934 1110.58 321.888 1112.79 322.808C1114.45 324.678 1114.51 324.701 1114.53 327.199C1113.31 329.485 1112.17 330.426 1109.92 331.671L1108.67 332.597C1107.56 331.284 1106.24 329.704 1105.72 328.034C1104.92 325.444 1105.79 324.493 1106.96 322.325Z"/>
	  <path fill="#EE1C24" d="M970.936 328.271C980.382 327.085 980.454 331.47 987.276 332.168L987.961 329.656C991.268 328.182 996.304 328.902 999.898 328.965Q1000.63 330.234 1000.96 331.663C1001.82 335.626 1001.82 362.909 1001.17 367.94C1000.85 370.385 1000.12 372.677 998.776 374.76C996.348 378.537 992.412 380.574 988.102 381.476Q987.271 381.657 986.433 381.796Q985.594 381.936 984.75 382.034Q983.905 382.131 983.057 382.187Q982.208 382.243 981.358 382.257Q980.508 382.271 979.659 382.242Q978.809 382.214 977.962 382.144Q977.115 382.073 976.272 381.961Q975.429 381.849 974.593 381.695Q973.757 381.542 972.929 381.347Q972.102 381.152 971.285 380.916Q970.468 380.68 969.664 380.405Q968.86 380.129 968.07 379.814Q967.281 379.498 966.508 379.144Q965.735 378.79 964.98 378.399Q964.226 378.007 963.491 377.578Q962.757 377.149 962.045 376.685C961.382 373.252 960.466 371.093 962.078 367.866C969.333 363.229 976.989 371.891 978.714 372.062C980.922 372.28 982.666 372.012 984.429 370.513C985.898 369.263 987.167 367.268 987.277 365.297C987.369 363.639 987.026 362.326 985.977 361.072C984.371 362.017 982.744 362.95 981.065 363.757C977.798 365.327 973.447 365.333 970.063 364.109C965.983 362.633 962.88 359.105 961.128 355.213C958.732 349.886 958.713 343.464 960.852 338.054C962.936 332.78 965.855 330.501 970.936 328.271Z"/>
	  <path fill="#FEFEFE" d="M976.666 338.463C978.399 338.103 980.187 337.816 981.916 338.381C983.782 338.99 985.222 340.671 986.111 342.363C987.294 344.614 987.378 347.331 986.583 349.725C985.68 352.441 984.142 353.24 981.755 354.416C980.984 355.031 979.261 354.911 978.265 354.962C976.373 353.934 975.528 353.1 974.879 350.972C973.482 346.388 974.404 342.497 976.666 338.463Z"/>
    <path fill="#EE1C24" d="M373.574 315.069L388.218 315.05L388.196 366.936C384.342 366.977 378.115 367.772 374.665 366.196L374.154 363.543C369.637 364.583 367.338 367.775 361.998 368.221C359.887 368 357.598 367.411 355.698 366.445C351.587 364.355 348.764 359.754 347.439 355.48C345.568 349.445 345.961 341.968 348.981 336.36C350.938 332.725 354.098 329.833 358.107 328.671C363.854 327.005 368.63 328.931 373.589 331.711L373.574 315.069Z"/>
	  <path fill="#FEFEFE" d="M364.975 337.637C367.228 337.905 369.364 338.098 371.036 339.808C373.052 341.872 374.056 344.824 373.967 347.678C373.824 352.26 372.404 355.178 369.098 358.282C367.241 358.109 365.415 357.831 363.947 356.577C362.142 355.034 361.09 352.309 360.901 349.994C360.515 345.255 361.906 341.187 364.975 337.637Z"/>
	  <path fill="#EE1C24" d="M86.5756 315.069L101.224 315.05L101.196 366.938C97.2497 367.021 91.6757 367.837 87.9861 366.508L87.0883 363.361Q86.742 363.527 86.3986 363.699C82.117 365.794 80.0425 367.732 74.9896 368.224C73.006 367.941 70.6749 367.48 68.8961 366.557C64.6966 364.378 61.8089 359.96 60.4567 355.531C58.564 349.331 58.9482 341.923 62.079 336.18C64.0232 332.614 67.1786 329.83 71.1094 328.686C76.8794 327.006 81.6142 328.955 86.585 331.703L86.5756 315.069Z"/>
	  <path fill="#FEFEFE" d="M77.9619 337.637C80.2168 337.903 82.3612 338.091 84.0351 339.803C86.0543 341.867 87.0568 344.821 86.9668 347.679C86.8225 352.26 85.3995 355.182 82.0928 358.283C80.2331 358.113 78.4125 357.834 76.944 356.577C75.1396 355.032 74.089 352.31 73.9005 349.994C73.5152 345.26 74.9043 341.19 77.9619 337.637Z"/>
	  <path fill="#EE1C24" d="M585.798 328.957L598.573 328.923C599.206 329.447 599.816 330.064 600.242 330.771C602.963 335.28 607.453 347.403 606.208 352.408Q607.416 351.228 608.292 349.783C610.848 345.527 614.054 333.596 612.951 328.952L626.651 328.998C626.779 329.417 626.868 329.827 626.901 330.263C627.159 333.64 625.06 337.713 622.88 340.172C623.02 340.724 623.117 341.282 623.097 341.855C622.943 346.403 616.198 363.679 612.782 366.955L599.951 366.942C600.154 366.34 600.336 365.668 600.287 365.028C599.876 359.663 595.771 348.033 591.796 344.534C592.009 345.112 592.167 345.726 592.225 346.341C592.664 351.008 587.978 363.385 585.123 366.953L571.913 366.938C573.339 362.435 561.441 335.682 559.388 329.121L571.914 328.922C572.216 329.222 572.505 329.531 572.766 329.867C575.776 333.759 578.547 347.604 578.031 352.352C578.579 351.895 579.115 351.359 579.507 350.76C582.075 346.834 586.711 333.232 585.798 328.957Z"/>
	  <path fill="#EE1C24" d="M713.708 315.53C718.214 314.705 723.429 315.086 728.03 315.052C728.439 315.681 728.815 316.392 729.017 317.118C730.431 322.217 730.427 336.881 727.834 341.349C728.101 341.211 728.363 341.073 728.621 340.918C731.931 338.928 738.077 332.836 739.067 329.022L756.766 329.025C756.724 329.244 756.726 329.261 756.651 329.501C755.552 333.017 746.317 340.514 743.035 342.32C743.554 342.662 744.039 343.029 744.477 343.472C747.465 346.5 753.801 356.546 753.796 360.544C753.864 360.592 753.934 360.639 754.001 360.689C756.059 362.223 757.547 364.385 757.908 366.929L741.335 366.943C741.36 366.818 741.392 366.694 741.411 366.567C741.925 363.313 735.754 354.42 733.786 351.803C733.39 353.884 730.326 355.155 729.562 357.27C728.414 360.452 730.199 363.682 728.245 366.941L713.06 366.947C713.228 366.705 713.23 366.711 713.396 366.417C715.287 363.073 715.242 320.989 713.708 315.53Z"/>
	  <path fill="#EE1C24" d="M646.382 328.271C653.201 327.563 659.777 328.036 665.425 332.297Q665.812 332.592 666.183 332.905Q666.555 333.219 666.91 333.551Q667.266 333.883 667.604 334.232Q667.942 334.581 668.263 334.947Q668.583 335.313 668.885 335.694Q669.187 336.076 669.469 336.471Q669.752 336.867 670.014 337.277Q670.276 337.686 670.518 338.109Q670.76 338.531 670.98 338.964Q671.2 339.398 671.398 339.842Q671.596 340.286 671.772 340.74Q671.948 341.193 672.1 341.655Q672.253 342.117 672.383 342.585Q672.512 343.054 672.618 343.529Q672.724 344.003 672.807 344.483Q672.889 344.962 672.947 345.445C673.619 350.608 672.529 355.922 669.311 360.088C665.331 365.241 660.054 366.978 653.849 367.748C648.739 368.07 643.939 367.697 639.355 365.205Q638.551 364.765 637.793 364.248Q637.035 363.731 636.332 363.142Q635.629 362.554 634.986 361.899Q634.344 361.245 633.769 360.531Q633.193 359.816 632.691 359.049Q632.188 358.282 631.763 357.469Q631.337 356.657 630.994 355.806Q630.65 354.956 630.391 354.076Q630.245 353.59 630.124 353.098Q630.003 352.606 629.906 352.108Q629.81 351.61 629.739 351.108Q629.667 350.606 629.621 350.101Q629.575 349.596 629.554 349.09Q629.533 348.583 629.538 348.076Q629.542 347.569 629.572 347.063Q629.602 346.557 629.657 346.053Q629.712 345.549 629.793 345.048Q629.873 344.547 629.978 344.051Q630.084 343.555 630.214 343.065Q630.343 342.575 630.498 342.092Q630.652 341.609 630.83 341.134Q631.009 340.66 631.21 340.195Q631.412 339.73 631.637 339.275Q631.862 338.821 632.109 338.378C635.443 332.436 640.113 330.059 646.382 328.271Z"/>
	  <path fill="#FEFEFE" d="M647.755 338.461C649.224 338.212 651.119 337.794 652.582 338.157C654.598 338.658 656.186 340.107 657.23 341.858C659.021 344.862 659.283 348.013 658.394 351.36C657.53 354.614 655.98 355.808 653.244 357.424C651.143 358.26 649.597 357.899 647.579 357.198C645.734 355.73 644.92 353.864 644.615 351.567C643.922 346.34 644.511 342.619 647.755 338.461Z"/>
	  <path fill="#EE1C24" d="M170.257 328.096C175.961 327.704 184.096 327.608 188.984 330.841C198.075 336.855 193.365 356.403 195.303 365.896C195.112 366.154 194.922 366.394 194.685 366.611C193.58 367.627 191.527 368.027 190.05 367.978C186.045 367.847 183.211 365.786 180.56 362.981C177.461 362.651 173.516 366.627 170.487 367.769C166.334 369.335 160.36 367.244 156.552 365.546C154.564 363.333 153.029 360.984 152.386 358.031C149.347 344.077 175.61 347.647 180.673 339.93L180.345 339.167C179.868 338.9 179.374 338.667 178.842 338.532C173.089 337.072 170.807 339.077 166.27 341.703C164.295 342.846 161.546 342.782 159.416 342.17C157.265 341.55 155.882 340.416 154.776 338.451C154.65 336.57 154.408 335.499 155.714 333.944C159.064 329.955 165.328 328.638 170.257 328.096Z"/>
	  <path fill="#FEFEFE" d="M179.117 349.325C179.639 349.783 179.98 350.802 180.294 351.437C180.143 353.057 180.24 353.621 179.082 354.856C176.531 357.576 172.841 358.027 169.32 358.158C168.628 357.56 168.188 357.043 167.806 356.197C167.132 354.701 167.489 354.462 168.064 352.967C171.053 350.627 175.482 350.13 179.117 349.325Z"/>
	  <path fill="#EE1C24" d="M858.917 328.271C861.295 328.124 863.701 327.971 866.084 328.012C871.629 328.109 877.524 329.916 881.398 334.044C885.393 338.301 886.524 343.863 886.332 349.537C886.034 349.88 885.578 350.566 885.224 350.816C884.314 351.458 863.704 350.598 858.043 352.512L858.9 352.406L858.314 355.853C865.364 359.576 867.361 355.95 872.829 355.22C875.095 354.917 878.114 355.522 880.417 355.746C881.81 355.793 882.974 355.754 884.176 356.552C884.209 357.082 884.421 358.127 884.192 358.577C881.932 363.013 876.734 365.838 872.144 367.269C866.03 369.174 858.956 369.019 853.229 365.965Q852.784 365.729 852.352 365.47Q851.92 365.212 851.501 364.932Q851.082 364.652 850.677 364.352Q850.273 364.052 849.884 363.732Q849.495 363.412 849.123 363.072Q848.751 362.733 848.396 362.376Q848.041 362.018 847.704 361.644Q847.367 361.269 847.05 360.878Q846.732 360.487 846.435 360.08Q846.137 359.674 845.86 359.253Q845.583 358.832 845.328 358.398Q845.073 357.964 844.839 357.518Q844.606 357.071 844.395 356.614Q844.184 356.156 843.996 355.689Q843.808 355.221 843.644 354.745Q843.48 354.269 843.34 353.785C841.825 348.645 842.186 342.82 844.819 338.096C847.991 332.407 852.911 329.958 858.917 328.271Z"/>
	  <path fill="#FEFEFE" d="M860.587 338.463C864.4 337.933 866.585 337.682 869.775 340.113C871.005 341.05 871.001 341.297 871.198 342.792C869.261 344.209 868.231 343.956 865.891 344.005C863.345 344.099 860.528 344.509 858.171 343.375C858.1 341.081 859.235 340.232 860.587 338.463Z"/>
	  <path fill="#EE1C24" d="M496.999 328.27C502.614 327.637 508.178 327.912 513.397 330.22C517.626 332.09 521.453 334.846 523.132 339.319C524.43 342.776 524.832 347.479 523.249 350.884C516.179 350.779 501.652 348.867 495.601 352.348L495.228 353.835C501.546 361.665 509.391 354.344 517.751 355.648C519.802 355.778 520.8 355.556 522.4 356.959L522.109 359.086C519.334 363.11 514.501 366.02 509.873 367.442C504.151 369.2 495.617 368.259 490.444 365.419Q490.025 365.189 489.618 364.939Q489.211 364.689 488.816 364.418Q488.422 364.148 488.042 363.859Q487.661 363.569 487.296 363.261Q486.93 362.953 486.581 362.627Q486.231 362.302 485.898 361.959Q485.565 361.616 485.249 361.257Q484.933 360.898 484.636 360.524Q484.338 360.15 484.06 359.762Q483.781 359.373 483.522 358.971Q483.263 358.569 483.024 358.155Q482.786 357.741 482.568 357.316Q482.35 356.89 482.154 356.454Q481.957 356.018 481.783 355.573Q481.608 355.128 481.456 354.675Q481.304 354.222 481.174 353.762C479.688 348.666 480.171 342.974 482.779 338.322C486.043 332.497 490.799 329.978 496.999 328.27Z"/>
	  <path fill="#FEFEFE" d="M498.413 338.46C500.356 338.124 502.465 337.747 504.397 338.312C506.603 338.956 508.326 340.26 509.427 342.19L508.539 343.517L505.182 344.003C502.51 344.095 498.5 344.74 496.2 343.286C496.121 341.059 497.153 340.218 498.413 338.46Z"/>
	  <path fill="#EE1C24" d="M316.301 328.103C318.419 328.034 320.56 327.971 322.678 328.075C328.204 328.347 334.093 330.221 337.859 334.463C341.651 338.732 342.561 344.458 342.212 349.983C337.547 353.403 321.498 348.643 313.827 352.921L313.667 354.687C319.912 360.152 323.964 356.074 329.192 355.323C332.209 354.889 335.934 355.514 338.989 355.764C339.644 355.861 340.353 356.466 340.904 356.827C340.879 357.43 340.788 357.969 340.486 358.503C338.147 362.647 331.258 366.812 326.73 367.798C320.567 369.141 312.615 368.25 307.27 364.766Q306.869 364.501 306.481 364.216Q306.093 363.931 305.72 363.628Q305.346 363.324 304.989 363.003Q304.631 362.681 304.289 362.342Q303.948 362.003 303.624 361.647Q303.3 361.292 302.993 360.921Q302.687 360.55 302.4 360.164Q302.112 359.778 301.844 359.378Q301.576 358.979 301.328 358.566Q301.081 358.154 300.853 357.73Q300.626 357.306 300.42 356.871Q300.215 356.436 300.031 355.991Q299.846 355.547 299.685 355.093Q299.523 354.64 299.384 354.18Q299.244 353.719 299.128 353.252Q299.012 352.785 298.919 352.313C297.842 346.989 298.618 341.333 301.673 336.776C305.23 331.47 310.239 329.309 316.301 328.103Z"/>
	  <path fill="#FEFEFE" d="M317.282 337.97C318.382 337.945 319.488 337.938 320.587 338.007C322.182 338.107 324.531 338.857 325.587 340.152C326.236 340.949 326.989 341.529 327.787 342.172L327.828 343.189L325.394 344.004C321.873 344.025 316.939 344.793 313.936 343.016C314.37 340.541 315.582 339.773 317.282 337.97Z"/>
	  <path fill="#EE1C24" d="M1348.6 329.121L1362.3 328.956C1362.86 329.475 1363.4 330.082 1363.76 330.753C1366.36 335.568 1370.98 348.688 1369.59 353.834C1370.42 353.048 1371.18 352.147 1371.74 351.145C1374.27 346.679 1378.58 333.704 1377.33 328.987L1391.6 329.035C1391.74 329.632 1391.83 330.277 1391.81 330.89C1391.69 335.286 1382.58 358.541 1379.67 361.393C1379.85 361.885 1379.98 362.389 1379.92 362.916C1379.42 367.662 1377.44 374.075 1373.73 377.191C1366.79 383.017 1358.63 381.975 1350.34 381.194C1351.5 378.974 1350.71 375.701 1350.42 373.277C1351.72 370.797 1358.69 372.991 1362.88 368.977C1364.74 361.383 1350.98 338.27 1348.6 329.121Z"/>
	  <path fill="#EE1C24" d="M227.827 327.963Q228.586 327.93 229.345 327.929C233.096 327.926 236.786 328.692 239.486 331.468C246.29 338.462 243.591 357.6 243.468 366.943L228.898 366.949C229.021 360.089 230.614 347.85 227.836 341.775C226.952 339.843 226.213 339.543 224.33 338.843C221.652 339.172 220.382 340.259 218.435 342.011C217.392 350.208 217.834 358.694 217.874 366.947L203.444 366.949L203.443 328.999C204.939 328.975 215.889 328.677 216.377 329.476C217.215 330.849 216.148 332.074 217.666 333.51C220.982 330.963 223.672 328.985 227.827 327.963Z"/>
	  <path fill="#EE1C24" d="M1033.28 328.271C1036.81 327.865 1040.56 327.586 1043.74 329.492C1047.12 331.519 1049.27 335.563 1050.15 339.301C1051.54 345.222 1052.12 361.805 1048.89 366.945L1034.39 366.953C1034.9 366.148 1035.37 365.224 1035.59 364.292C1036.84 359.118 1037.35 345.601 1034.56 341.299C1033.42 339.541 1032.5 339.49 1030.58 339.055C1027.93 339.468 1026.45 340.968 1024.54 342.71Q1024.67 343.084 1024.75 343.47C1025.82 348.147 1025.91 362.981 1023.39 366.953L1008.93 366.948C1008.96 366.895 1008.99 366.844 1009.02 366.79C1009.06 366.7 1009.1 366.608 1009.15 366.519C1009.47 365.893 1009.79 365.288 1010.01 364.618C1011.64 359.731 1011.26 333.264 1009.14 329.003C1013.78 328.93 1019.15 328.331 1023.63 329.518C1023.85 330.871 1024.13 332.15 1024.51 333.465C1027.37 331.364 1030.02 329.673 1033.28 328.271Z"/>
	  <path fill="#EE1C24" d="M544.97 316.375C546.15 316.142 546.94 316.198 548.105 316.459C549.803 319.486 548.635 324.316 548.909 327.819C551.437 329.962 553.981 327.872 556.676 329.556C557.302 331.514 557.164 334.215 556.588 336.183C555.748 339.052 552.894 339.958 550.501 341.303C549.667 342.333 549.039 343.411 548.745 344.709C545.347 359.717 553.637 354.872 557.694 361.17C557.984 363.49 557.444 364.448 556.606 366.579C553.925 367.953 550.433 367.749 547.471 367.86C544.221 367.932 540.168 367.743 537.625 365.437C532.874 361.127 534.792 351.15 534.498 345.25C534.241 340.098 532.994 341.297 529.998 338.411C528.684 337.146 528.179 335.928 528.229 334.087C528.415 327.364 531.253 330.702 534.348 327.892L534.368 323.178C536.361 319.879 541.922 319.225 544.843 316.496C544.886 316.456 544.928 316.415 544.97 316.375Z"/>
	  <path fill="#EE1C24" d="M105.509 329.061L120.053 328.918C122.663 336.883 124.998 344.965 127.455 352.98C130.34 345.145 132.597 336.915 135.107 328.943L149.657 329.027L144.65 341.225L133.703 366.958L120.75 366.931C115.659 354.743 108.892 341.789 105.509 329.061Z"/>
	  <path fill="#EE1C24" d="M903.919 328.271C910.322 327.922 918.974 327.114 924.33 331.327C926.482 333.02 927.602 335.12 927.914 337.816C920.859 339.085 908.61 335.463 904.066 338.32C906.514 343.313 922.774 343.531 928.038 348.215C929.598 349.604 931.194 351.615 931.243 353.794C931.307 356.66 929.579 359.355 927.617 361.313C921.922 367.001 916.846 367.89 909.196 367.891Q907.482 367.9 905.772 367.796C895.531 367.135 894.569 362.916 888.485 356.033L898.809 355.374C901.907 355.197 902.998 355.036 905.365 357.133C907.516 359.039 909.42 360.252 912.387 359.985C914.424 359.802 915.588 358.64 916.784 357.147C915.036 352.883 901.501 351.271 897.022 348.665C894.446 347.167 892.135 344.943 891.368 341.977C890.74 339.548 891.039 337.018 892.347 334.865C894.797 330.831 899.619 329.322 903.919 328.271Z"/>
	  <path fill="#EE1C24" d="M268.579 328.07C270.723 327.949 272.861 327.92 275.001 328.136C280.775 328.719 287.281 331.431 291.036 335.987C291.586 338.324 291.575 338.344 290.43 340.456C287.723 342.624 283.048 342.527 279.693 342.882C277.986 340.577 276.466 338.712 273.492 338.241C271.434 337.915 269.263 338.165 267.554 339.435C265.557 340.92 264.605 343.413 264.304 345.81C263.836 349.529 264.396 353.853 266.765 356.851C274.243 360.783 276.76 353.428 281.131 352.558C282.063 352.372 283.778 352.725 284.779 352.788C287.881 353.089 290.199 352.961 292.38 355.365C292.512 357.242 292.62 357.895 291.472 359.511C288.228 364.076 280.854 366.878 275.539 367.697C269.004 368.705 262.052 367.933 256.612 363.882C252.678 360.953 250.316 356.674 249.641 351.842C248.832 346.058 250.187 340.195 253.755 335.538C257.715 330.369 262.406 328.885 268.579 328.07Z"/>
	  <path fill="#EE1C24" d="M699.081 328.27Q700.132 328.109 701.196 328.085C703.539 328.043 706.815 328.29 708.556 329.99C708.606 331.133 708.724 332.519 708.436 333.631C706.805 339.945 702.068 337.581 697.942 340.136C692.349 343.597 694.603 360.511 693.284 366.774C690.38 367.397 686.362 366.917 683.33 366.942L680.699 366.683C676.104 361.062 682.166 337.371 678.298 328.988C681.658 328.893 685.249 328.588 688.59 328.875C691.382 329.116 691.994 330.955 693.65 332.833C695.511 331.536 697.276 329.71 699.081 328.27Z"/>
	  <path fill="#EE1C24" d="M937.474 329.121C942 328.883 946.616 329.02 951.152 328.978C951.178 329.026 951.206 329.072 951.229 329.12C951.269 329.2 951.303 329.283 951.343 329.363C951.694 330.059 952.056 330.749 952.238 331.514C953.38 336.298 953.461 362.31 951.142 366.076C949.141 367.883 939.382 366.981 936.382 366.949C936.411 366.896 936.442 366.844 936.469 366.791C936.514 366.701 936.552 366.609 936.597 366.52C939.834 360.186 938.208 336.902 937.474 329.121Z"/>
	  <path fill="#EE1C24" d="M936.904 315.531C941.507 314.708 946.791 315.084 951.482 315.05C951.846 315.744 952.176 316.467 952.384 317.225C953.048 319.649 952.338 322.163 951.164 324.286L950.082 324.941C946.397 325.114 942.718 325.447 939.105 324.522C937.456 322.582 937.663 318.246 936.904 315.531Z"/>

    <animate attributeName="opacity" from="0" to="1" dur="1s" begin="1.1s" fill="freeze"/>
  </g>

  <!-- Animation Code Ends Here -->

</svg>