<?xml version="1.0" encoding="utf-8"?>
<svg xmlns="http://www.w3.org/2000/svg" viewBox="243.51 7.371 1727.737 342.977">
  <path fill="#FF5A62" d="M 277.728 283.531 L 296.245 283.517 C 302.499 300.555 308.784 318.553 315.327 335.403 L 298.22 335.417 L 295.742 326.397 L 277.629 326.369 L 274.919 335.427 L 258.421 335.424 L 258.421 334.341 C 262.765 325.942 273.914 294.247 277.728 283.531 Z M 282.883 311.945 C 284.942 314.232 286.976 313.628 290.042 313.602 L 291.738 312.819 C 291.771 309.716 288.101 299.705 286.592 296.879 C 285.027 301.357 281.973 307.715 282.883 311.945 Z" style="stroke-width: 1;"/>
  <path fill="#F5EDE4" d="M 746.615 25.452 L 814.012 25.4 C 842.011 25.367 865.762 24.668 893.471 30.591 C 954.709 43.682 978.905 107.449 966.097 164.083 C 959.867 191.635 943.709 213.846 919.547 228.764 C 883.207 250.882 835.308 244.616 794.555 245.45 C 780.615 245.736 761.084 246.233 747.721 244.982 C 746.492 243.789 746.851 244.184 746.589 242.185 C 750.278 238.892 757.108 240.804 761.916 239.885 C 783.064 235.846 778.808 206.175 778.737 189.633 L 778.745 146.004 L 778.804 86.533 C 778.809 73.87 779.371 55.925 777.222 44.864 C 774.209 29.356 757.519 32.581 747.404 29.29 C 746.954 29.143 746.73 26.297 746.615 25.452 Z M 810.204 42.181 L 810.235 228.767 C 840.233 235.147 865.577 236.883 892.447 219.451 C 893.405 218.843 894.338 218.197 895.245 217.515 C 916.48 201.081 927.654 180.24 930.934 153.624 C 934.458 125.028 930.433 93.403 912.419 70.077 C 898.946 52.464 878.921 41.054 856.903 38.446 C 850.073 37.589 837.716 37.38 830.938 38.424 C 823.489 39.495 817.556 40.573 810.204 42.181 Z" style="stroke-width: 1;"/>
  <path fill="#F5EDE4" d="M 1097.46 20.371 C 1099.45 20.431 1103.74 20.11 1104.41 21.728 C 1108.75 32.149 1114.46 45.768 1118.67 55.806 L 1156.48 146.107 C 1164.53 165.337 1183.77 217.925 1195.48 230.899 C 1202.86 239.083 1208.42 236.26 1216.2 240.654 C 1217.95 241.639 1218.06 242.232 1218.6 244.079 C 1214.55 246.988 1143.5 245.015 1132.85 245.084 C 1131.73 245.091 1131.51 244.445 1130.9 243.594 C 1134.41 235.604 1160.08 243.928 1151.64 216.559 C 1146.89 201.152 1139.9 186.349 1133.63 171.477 L 1101.17 171.476 L 1048.66 171.464 C 1041.28 188.4 1031.76 206.714 1028.31 224.735 C 1025.32 240.392 1051.24 236.895 1053.7 243.69 L 1052.64 244.95 C 1043.02 245.707 996.239 246.527 984.548 244.354 C 984.23 244.295 984.169 242.134 984.113 241.461 C 985.681 239.99 995.194 237.285 998.003 236.201 C 1002.85 234.332 1008.55 225.972 1010.82 221.326 C 1021.6 199.245 1031.29 175.288 1040.94 152.691 Z M 1053.89 159.507 L 1090.98 159.512 L 1128.89 159.491 C 1125.1 150.576 1093.48 73.442 1091.48 71.705 C 1079.02 100.676 1065.86 130.412 1053.89 159.507 Z" style="stroke-width: 1;"/>
  <path fill="#F5EDE4" d="M 375.475 20.352 C 377.024 20.389 381.597 20.178 382.223 21.592 C 387.106 32.605 392.654 46.108 397.246 57.072 L 436.046 149.847 C 447.218 176.656 457.63 206.851 473.503 231.047 C 479.271 239.839 494.39 236.938 496.429 244.122 C 492.878 246.305 418.253 245.67 409.572 244.949 C 409.464 244.74 408.556 243.001 408.558 242.949 C 414.273 239.14 428.95 237.403 430.063 231.884 C 433.404 215.305 417.989 186.586 411.605 171.479 L 380.27 171.476 L 326.688 171.464 C 319.388 188.249 311.344 204.397 306.576 222.11 C 301.493 240.987 329.71 236.566 331.612 244.139 L 330.744 244.959 C 312.054 246.54 291.86 244.773 273.022 245.462 C 270 245.573 263.67 246.004 261.822 243.631 L 262.577 241.651 C 266.151 238.585 272.348 237.889 276.525 235.918 C 283.364 232.692 289.32 220.959 292.227 214.502 C 301.635 193.601 310.491 172.541 319.47 151.492 Z M 331.763 159.508 L 370.08 159.512 L 406.771 159.492 C 402.851 150.048 372.471 74.772 369.342 71.794 Z" style="stroke-width: 1;"/>
  <path fill="#F5EDE4" d="M 1858.08 36.772 L 1859.24 37.003 C 1859.78 39.136 1833.9 127.345 1831.1 137.078 C 1838.09 130.029 1845.02 123.284 1853.58 118.421 C 1871.47 108.261 1895.48 109.729 1906.1 129.705 C 1913.62 143.692 1912.11 162.157 1907.77 176.89 C 1901.81 197.119 1889.26 216.27 1873.01 229.706 C 1867.49 234.271 1861.71 237.707 1855.42 241.174 C 1830.06 253.166 1802.32 249.989 1781.01 231.244 C 1799.11 177.363 1812.25 118.927 1829.29 64.445 C 1836.4 41.733 1814.5 51.793 1809.45 48.164 C 1809.16 45.765 1808.91 46.524 1810.07 44.71 C 1818.64 42.137 1848.28 38.188 1858.08 36.772 Z M 1802.92 233.089 C 1812.36 238.102 1818.53 241.27 1829.45 241.306 C 1884.72 236.021 1908.91 124.145 1862.18 126.661 C 1821.01 135.079 1813.5 197.61 1802.92 233.089 Z" style="stroke-width: 1;"/>
  <path fill="#F5EDE4" d="M 495.889 25.448 L 555.906 25.417 C 599.991 79.468 645.481 137.001 690.415 189.982 L 690.538 98.442 C 690.542 80.466 691.648 62.425 688.731 44.525 C 685.522 24.835 660.903 35.374 659.405 27.186 L 660.373 25.786 C 682.15 23.317 711.281 26.51 733.627 25.721 C 735.173 25.667 736.045 26.599 737.028 27.578 C 733.329 32.73 719.501 28.879 713.013 34.95 C 705.556 41.928 705.26 49.501 705.153 59.123 C 705.028 70.436 705.103 81.756 705.104 93.059 L 705.164 198.198 C 705.169 208.024 705.82 239.795 704.809 247.981 C 702.739 249.824 702.473 249.173 698.88 249.189 C 683.494 229.571 666.088 209.143 650.201 189.776 L 553.934 72.36 L 553.905 170.536 C 553.904 186.759 553.533 206.015 554.675 222.175 C 556.497 247.95 584.116 234.661 585.141 244.269 C 583.311 245.889 510.969 246.646 508.006 243.67 C 508.837 238.842 524.573 242.715 533.858 233.468 C 536.35 230.996 537.991 227.795 538.545 224.329 C 540.077 214.548 539.484 179.138 539.486 167.737 L 539.432 54.703 C 530.818 45.178 521.317 35.006 507.737 33.947 C 504.088 33.663 500.493 33.271 496.961 32.272 C 495.627 30.113 496.001 28.256 495.889 25.448 Z" style="stroke-width: 1;"/>
  <path fill="#F5EDE4" d="M 1707.18 114.733 C 1724.62 113.815 1731.89 116.279 1739.11 132.808 L 1743.62 118.259 C 1750.04 117.462 1759.92 115.419 1766.53 114.247 L 1746.07 186.666 C 1743.06 197.336 1735.16 222.889 1734.98 232.537 C 1735.97 234.699 1735.37 234.006 1737.67 235.208 C 1745.5 232.579 1747.12 218.958 1753.1 217.552 C 1755.51 218.609 1754.78 217.959 1756.15 220.111 C 1749.95 238.369 1713.48 265.109 1711.62 235.828 C 1712.13 225.821 1715.12 216.53 1717.89 206.959 C 1704.99 222.429 1684.01 244.228 1664.06 247.55 C 1622 254.558 1621.23 211.618 1632.81 184.418 C 1646.29 152.785 1672.83 121.393 1707.18 114.733 Z M 1673.43 231.004 C 1724.87 216.297 1756.84 119.536 1709.87 121.674 C 1666.84 130.075 1620.75 233.964 1673.43 231.004 Z" style="stroke-width: 1;"/>
  <path fill="#F5EDE4" d="M 1498.24 46.583 C 1507.2 46.579 1578.14 46.018 1579.78 47.373 C 1579.68 48.258 1579.37 51.241 1578.31 51.397 C 1568.78 52.81 1561.13 51.16 1553.56 58.585 C 1550.26 61.819 1547.78 68.042 1546.38 72.665 C 1539.25 96.33 1530.62 124.995 1524.27 148.508 C 1519.94 164.581 1503.3 216.704 1503.12 229.063 C 1507.26 238.125 1526.25 235.262 1534.58 235.423 C 1557.02 235.858 1578.92 232.095 1592.26 212.159 C 1595.53 207.26 1604.05 190.82 1609.24 189.147 L 1610.42 189.787 C 1611.28 192.305 1609.9 195.026 1608.95 197.592 C 1603.59 211.047 1597.35 231.257 1592.48 245.408 C 1578.18 245.411 1448.43 246.051 1445.74 244.474 C 1446.29 240.413 1465.21 239.1 1472.14 231.367 C 1477.26 225.657 1520.99 73.587 1520.46 64.011 C 1519.56 47.693 1504.35 55.908 1498.15 50.316 L 1498.24 46.583 Z" style="stroke-width: 1;"/>
  <path fill="#FF5A62" d="M 1047.05 283.539 C 1058.13 283.513 1077.65 281.519 1086.3 287.824 C 1098.34 296.592 1096.95 317.988 1088.92 329.117 C 1079.28 337.857 1059.95 335.595 1047.04 335.423 Z M 1063.2 323.57 C 1067.95 323.531 1072.58 323.881 1076.57 321.013 C 1082.76 307.963 1080.19 295.007 1063.19 295.421 Z" style="stroke-width: 1;"/>
  <path fill="#FF5A62" d="M 681.046 283.54 L 695.873 283.526 C 702.403 292.441 709.393 303.201 715.725 312.429 L 715.715 283.545 L 730.774 283.528 L 730.749 335.42 L 715.656 335.423 L 695.952 306.758 L 695.929 335.421 L 681.036 335.424 L 681.046 283.54 Z" style="stroke-width: 1;"/>
  <path fill="#FF5A62" d="M 1361.3 282.936 C 1383.31 281.299 1395.14 293.842 1374.13 308.083 C 1384.36 317.282 1382.49 308.922 1395.65 313.001 L 1391.4 321.871 L 1399.2 326.976 C 1397.14 329.611 1393.86 334.517 1391.12 335.882 L 1389.03 334.977 C 1388.17 334.33 1384.08 331.195 1383.08 331.577 C 1376.17 334.47 1357.2 339.593 1350.31 334.285 C 1335.8 323.113 1344.67 312.393 1355.4 306.601 C 1348.08 296.249 1348.69 287.778 1361.3 282.936 Z M 1366.49 300.399 C 1367.24 300.614 1367.99 300.956 1368.68 300.795 C 1370.9 298.678 1372.48 297.54 1373.05 294.527 C 1371.82 290.405 1370.35 290.566 1366.28 290.002 C 1363.6 293.59 1362.27 296.86 1366.49 300.399 Z M 1366.9 326.284 C 1368.17 326.194 1369.44 326.034 1370.7 325.804 L 1372.66 323.931 C 1371.99 321.245 1363.84 314.651 1361.33 313.695 C 1354.18 321.159 1357.63 326.851 1366.9 326.284 Z" style="stroke-width: 1;"/>
  <path fill="#FF5A62" d="M 1230.9 296.445 C 1238.25 296.099 1238.98 297.95 1245.46 300.801 C 1246.05 299.68 1246.18 299.208 1246.55 298.016 C 1249.52 296.938 1256.21 297.379 1259.65 297.438 C 1259.46 310.074 1261.24 326.896 1258.9 338.793 C 1255.95 353.739 1231.1 353.049 1221.25 345.263 C 1219.67 342.194 1218.72 339.709 1219.58 336.463 C 1226.69 332.788 1235.48 341.183 1240.98 340.278 C 1244.49 338.674 1246.56 333.551 1245.17 329.981 C 1240.58 328.944 1238.78 333.185 1236.15 333.491 C 1216.03 335.819 1209.48 303.092 1230.9 296.445 Z M 1241.56 323.553 C 1247.69 316.392 1246.85 305.96 1235.78 306.407 C 1230.47 313.465 1230.42 324.016 1241.56 323.553 Z" style="stroke-width: 1;"/>
  <path fill="#FF5A62" d="M 1445.64 283.537 L 1464.35 283.517 C 1468.76 298.079 1477.82 320.509 1483.28 335.404 L 1466.35 335.419 L 1463.66 326.415 L 1445.53 326.369 L 1442.97 335.426 L 1426.42 335.413 Z M 1450.85 312.335 C 1453.32 314.202 1453.81 313.568 1457.57 313.689 L 1459.46 312.932 C 1459.83 310.246 1456.47 299.031 1454.26 297.667 C 1452.82 301.994 1449.75 308.503 1450.85 312.335 Z" style="stroke-width: 1;"/>
  <path fill="#FF5A62" d="M 1890.83 283.54 L 1905.63 283.527 L 1905.62 300.247 C 1926.24 286.428 1940.51 311.844 1927.47 332.086 C 1925.45 333.71 1923.18 334.996 1920.75 335.894 C 1911.47 339.414 1909.49 330.492 1904.55 332.418 L 1904.12 334.867 C 1902.72 335.778 1893.26 335.426 1890.82 335.427 Z M 1913.25 326.946 C 1920.22 320.72 1921.03 307.314 1909.9 306.09 C 1903.63 312.669 1902.49 325.176 1913.25 326.946 Z" style="stroke-width: 1;"/>
  <path fill="#FF5A62" d="M 344.997 283.546 L 359.645 283.527 L 359.617 335.415 C 356.478 335.489 349.056 335.954 346.492 335.061 L 345.627 331.989 C 341.396 333.08 341.269 336.028 333.411 336.701 C 307.682 333.032 314.761 283.425 345.006 300.18 Z M 340.514 326.76 C 347.554 320.158 347.988 307.486 336.383 306.114 C 330.817 312.582 329.58 325.755 340.514 326.76 Z" style="stroke-width: 1;"/>
  <path fill="#FF5A62" d="M 631.995 283.546 L 646.639 283.527 L 646.617 335.413 C 643.479 335.488 636.057 335.956 633.496 335.06 L 632.629 331.988 C 628.408 333.072 628.272 336.03 620.419 336.698 C 594.555 333.055 601.958 283.295 632.01 300.188 Z M 627.519 326.759 C 634.553 320.154 634.979 307.497 623.396 306.114 C 617.807 312.579 616.577 325.739 627.519 326.759 Z" style="stroke-width: 1;"/>
  <path fill="#FF5A62" d="M 845.342 297.432 L 858.279 297.398 L 866.442 320.996 C 868.613 313.828 870.625 304.806 872.482 297.426 L 886.48 297.473 L 882.006 309.685 L 872.517 335.43 L 859.503 335.417 C 857.355 328.146 854.421 320.183 851.931 312.955 L 844.572 335.427 L 831.488 335.415 C 827.174 323.436 821.386 309.334 817.813 297.507 L 831.58 297.396 L 837.568 320.643 C 839.363 316.807 843.799 302.196 845.342 297.432 Z" style="stroke-width: 1;"/>
  <path fill="#FF5A62" d="M 972.775 283.542 L 987.755 283.527 L 987.747 309.836 L 998.66 297.487 L 1016.34 297.502 L 1002.66 310.777 L 1012.8 328.093 L 1017.13 335.403 L 1000.72 335.42 L 993.098 320.281 C 986.638 326.147 987.473 326.978 987.738 335.416 L 972.763 335.424 L 972.775 283.542 Z" style="stroke-width: 1;"/>
  <path fill="#FF5A62" d="M 906.95 296.565 C 912.062 296.324 917.103 296.651 921.665 299.229 C 926.18 301.722 929.49 305.94 930.84 310.919 C 934.539 324.243 926.268 333.031 914.097 336.326 C 907.179 336.6 902.051 336.579 896.168 332.395 C 891.872 329.338 888.988 324.68 888.164 319.472 C 886.075 306.487 894.874 298.493 906.95 296.565 Z M 912.525 326.5 C 915.878 323.162 917.227 320.349 917.193 315.438 C 917.188 312.742 916.082 310.165 914.13 308.306 C 912.161 306.437 909.798 306.432 907.161 306.355 C 899.832 313.699 900.324 327.284 912.525 326.5 Z" style="stroke-width: 1;"/>
  <path fill="#FF5A62" d="M 1856.63 296.609 C 1891.27 293.385 1876.46 316.995 1882.22 335.424 C 1878.99 335.487 1873.07 335.749 1869.87 335.329 C 1868.74 335.18 1867.84 332.51 1867.18 331.126 C 1858.32 331.979 1858.99 341.951 1842.39 333.633 C 1841.82 332.85 1841.26 332.046 1840.74 331.223 C 1829.55 313.337 1864.61 314.591 1866.11 308.448 C 1860.86 303.799 1845.49 314.729 1840.61 307.988 C 1840.84 299.692 1850.2 297.427 1856.63 296.609 Z M 1854.59 321.402 L 1853.74 323.051 C 1854.57 325.645 1854.02 324.752 1856.04 326.654 C 1860.96 326.395 1865.92 325.507 1866.76 319.94 C 1866.49 319.358 1866.04 318.183 1865.62 317.806 C 1862.03 318.598 1857.47 319.266 1854.59 321.402 Z" style="stroke-width: 1;"/>
  <path fill="#FF5A62" d="M 428.678 296.573 C 428.956 296.551 429.234 296.533 429.512 296.52 C 434.902 296.271 445.52 296.485 449.028 300.346 C 453.728 305.52 453.254 327.452 453.444 334.61 C 452.053 335.884 443.115 335.738 441.033 335.236 L 439.178 331.248 C 432.201 330.952 431.855 341.581 414.973 334.023 C 397.759 314.922 434.654 314.589 437.652 308.599 C 432.787 303.767 417.065 314.959 412.678 308.006 C 413.399 299.301 421.717 297.505 428.678 296.573 Z M 426.493 321.456 C 425.581 323.828 425.525 324.723 427.741 326.635 C 432.544 326.455 438.162 325.578 438.705 319.931 C 438.446 319.396 437.915 318.133 437.538 317.802 C 433.987 318.589 429.26 319.269 426.493 321.456 Z" style="stroke-width: 1;"/>
  <path fill="#FF5A62" d="M 1551.44 296.638 C 1585.72 292.992 1571.6 316.804 1577.25 335.42 C 1575.34 335.467 1566.26 335.95 1564.09 335.128 C 1563.72 334.988 1564.11 332.793 1562.24 331.24 C 1552.31 332.155 1554.51 341.21 1537.97 334.087 C 1520.21 315.947 1557.77 313.911 1560.81 308.727 C 1556.57 304.299 1540.86 313.934 1535.71 308.35 C 1535.61 299.75 1544.91 297.482 1551.44 296.638 Z M 1549.59 321.393 C 1548.58 323.864 1548.56 324.361 1550.42 326.708 C 1555.44 326.459 1560.96 325.755 1561.74 319.93 C 1561.49 319.267 1561.22 318.189 1560.69 317.806 C 1557.2 318.547 1552.22 319.199 1549.59 321.393 Z" style="stroke-width: 1;"/>
  <path fill="#FF5A62" d="M 1119.24 296.552 C 1132.25 295.59 1140.07 299.395 1145.22 311.57 C 1146.44 314.431 1146.2 315.545 1144.47 317.903 C 1136.64 322.475 1120.87 316.064 1115.85 321.047 L 1116.23 322.822 C 1121.93 328.454 1125.94 325.956 1131.73 323.77 C 1132.52 323.473 1140.19 324.14 1141.63 324.258 C 1142.91 324.616 1142.47 324.292 1143.23 325.589 C 1142.93 326.326 1142.57 327.036 1142.14 327.708 C 1135.64 337.932 1119.89 339.842 1110.08 333.348 C 1105.5 330.272 1102.33 325.494 1101.29 320.074 C 1098.66 306.765 1106.78 298.789 1119.24 296.552 Z M 1116.42 311.19 C 1118.75 313.203 1123.96 312.588 1127.28 312.485 L 1129.63 311.916 C 1130.4 307.078 1123.19 306.457 1119.95 306.385 C 1117.6 308.672 1117.23 308.36 1116.42 311.19 Z" style="stroke-width: 1;"/>
  <path fill="#FF5A62" d="M 757.681 296.547 C 775.89 295.429 781.409 302.455 783.174 319.36 C 777.66 319.458 755.885 317.08 754.488 322.273 L 756.06 324.475 C 763.089 328.416 766.313 322.716 779.142 324.218 C 780.789 324.557 780.229 324.213 781.268 325.49 C 775.362 337.757 757.068 339.965 746.976 332.747 C 742.774 329.719 739.956 325.138 739.147 320.021 C 736.963 306.808 745.164 298.475 757.681 296.547 Z M 754.571 311.415 C 757.497 313.196 762.476 312.565 766.241 312.483 L 767.826 311.704 L 768.051 310.619 C 765.376 306.601 761.999 306.361 757.504 306.519 C 755.54 308.763 754.812 308.821 754.571 311.415 Z" style="stroke-width: 1;"/>
  <path fill="#FF5A62" d="M 574.722 296.58 C 586.188 295.799 598.346 299.395 601.847 313.144 C 604.754 324.559 575.41 316.181 572.019 320.858 C 573.804 328.408 582.911 326.559 587.318 323.721 C 587.62 323.526 596.217 324.152 597.41 324.241 C 598.189 324.324 598.617 324.834 599.238 325.364 C 596.435 336.703 576.003 339.888 566.301 333.636 C 561.69 330.645 558.482 325.919 557.401 320.529 C 554.727 307.505 562.373 299.045 574.722 296.58 Z M 572.44 311.38 C 575.289 313.181 580.101 312.555 583.815 312.481 L 585.811 311.722 C 585.72 306.926 579.23 306.417 575.703 306.447 C 573.416 308.844 572.997 308.534 572.44 311.38 Z" style="stroke-width: 1;"/>
  <path fill="#FF5A62" d="M 1607.03 297.538 L 1621.94 297.425 C 1624.4 305.773 1627.01 314.078 1629.77 322.335 L 1636.99 297.47 L 1651.18 297.501 C 1647.48 307.908 1643.46 318.445 1639.63 328.828 C 1632.96 348.197 1631.25 352.034 1609.7 349.585 C 1609.39 346.952 1609.19 345.125 1609.18 342.474 C 1613.43 336.559 1620.81 342.048 1621.07 338.737 C 1622.08 325.94 1610.27 310.497 1607.03 297.538 Z" style="stroke-width: 1;"/>
  <path fill="#FF5A62" d="M 486.248 296.44 C 486.755 296.418 487.261 296.406 487.768 296.406 C 506.834 296.384 502.067 321.945 501.889 335.42 L 487.319 335.426 C 487.456 328.297 489.743 309.99 482.727 307.351 C 479.783 307.658 479.061 308.518 476.856 310.488 C 475.922 317.83 476.258 327.836 476.295 335.424 L 461.865 335.426 L 461.864 297.476 C 464.654 297.411 472.86 296.866 474.858 297.956 L 475.269 301.214 L 476.148 301.827 C 479.496 299.456 481.921 297.465 485.968 296.506 L 486.248 296.44 Z" style="stroke-width: 1;"/>
  <path fill="#FF5A62" d="M 1292.73 296.475 C 1293.21 296.462 1293.69 296.453 1294.17 296.449 C 1314.05 296.295 1308.95 321.183 1308.81 335.419 L 1294.31 335.428 C 1294.45 328.349 1296.88 309.407 1289.38 307.279 C 1286.55 307.822 1285.88 308.66 1283.82 310.623 C 1282.88 317.268 1283.25 328.399 1283.28 335.426 L 1268.85 335.426 L 1268.85 297.479 C 1275.73 297.159 1280.23 295.094 1283.03 301.823 C 1286.72 299.207 1288.32 297.916 1292.73 296.475 Z" style="stroke-width: 1;"/>
  <path fill="#FF5A62" d="M 1511.84 296.472 C 1512.42 296.456 1513 296.448 1513.57 296.448 C 1532.93 296.433 1527.98 321.569 1527.84 335.419 L 1513.34 335.427 C 1513.49 328.348 1515.9 309.516 1508.45 307.297 C 1505.62 307.763 1504.87 308.69 1502.8 310.636 C 1501.93 317.427 1502.28 328.295 1502.31 335.426 L 1487.88 335.426 L 1487.88 297.466 C 1490.85 297.383 1498.53 296.817 1500.81 297.881 C 1501.17 299.331 1501.48 300.456 1501.96 301.871 C 1505.71 299.215 1507.37 297.862 1511.84 296.472 Z" style="stroke-width: 1;"/>
  <path fill="#FF5A62" d="M 1793.76 283.541 L 1809.85 283.529 L 1809.84 322.579 L 1835.08 322.552 L 1835.07 335.421 L 1793.76 335.424 L 1793.76 283.541 Z" style="stroke-width: 1;"/>
  <path fill="#FF5A62" d="M 1737.79 296.573 C 1749.66 296.23 1753.99 295.956 1760.59 306.348 C 1758.76 306.511 1749.2 307.648 1748.05 307.287 C 1744.88 306.299 1740.49 301.51 1735.67 307.044 C 1736.94 312.741 1762.09 310.375 1761.83 321.541 C 1761.57 332.884 1753.15 335.63 1743.57 336.432 C 1736.34 336.358 1720.92 335.394 1721.99 325.264 C 1727.65 317.613 1742.88 333.351 1747.73 325.766 C 1744.48 319.74 1729.29 319.905 1725.58 315.625 C 1716.02 304.597 1728.65 297.752 1737.79 296.573 Z" style="stroke-width: 1;"/>
  <path fill="#FF5A62" d="M 1667.65 296.602 C 1674.14 296.373 1691.32 296.397 1690.22 306.025 C 1683.89 310.554 1673.11 302.164 1667.5 306.387 C 1669.18 311.544 1686.17 311.893 1689.85 316.47 C 1699.59 328.594 1685.01 335.501 1674.92 336.427 C 1667.16 336.334 1651.92 335.709 1653.14 324.934 C 1659.2 318.254 1673.25 332.93 1678.88 325.838 C 1676.04 319.798 1660.98 320.08 1657.14 316.109 C 1647.22 305.861 1658.34 298.28 1667.65 296.602 Z" style="stroke-width: 1;"/>
  <path fill="#FF5A62" d="M 1164.66 296.56 C 1176.43 296.255 1181.02 295.935 1187.66 306.355 C 1184.64 306.703 1181.46 307.134 1178.43 306.845 C 1173.95 306.418 1166.65 303.99 1162.97 307.248 C 1166.46 313.372 1188.02 308.969 1188.37 322.285 C 1188.66 333.257 1178.1 335.986 1169.34 336.444 C 1157.47 336.004 1152.89 335.96 1147.91 324.439 C 1149.24 324.334 1158.63 323.484 1159.13 323.68 C 1164.17 325.652 1169.54 331.628 1175.65 325.424 C 1172.76 320.309 1139.54 319.073 1152.03 302.263 C 1155.41 297.719 1159.54 297.323 1164.66 296.56 Z" style="stroke-width: 1;"/>
  <path fill="#FF5A62" d="M 527 296.547 C 534.934 296.157 544.623 297.961 549.661 304.74 C 550.056 307.552 550.268 306.49 548.691 308.988 C 546.131 310.883 541.425 310.997 538.114 311.359 C 532.025 303.01 523.857 305.686 522.52 315.568 C 521.23 325.101 530.099 330.458 536.835 322.927 C 539.036 320.466 540.384 321.024 543.2 321.265 L 548.668 321.912 C 550.755 323.628 550.214 322.745 550.708 325.568 C 547.47 337.243 521.143 339.523 514.581 332.428 C 501.451 318.23 507.755 299.273 527 296.547 Z" style="stroke-width: 1;"/>
  <path fill="#FF5A62" d="M 805.44 284.318 L 806.247 284.392 C 808.411 287.292 806.378 290.861 807.142 294.295 C 808.271 299.372 811.785 295.979 814.731 297.763 C 815.624 300.959 815.897 301.785 815.517 305.064 C 813.601 308.041 812.362 307.329 808.495 309.456 C 806.22 312.398 806.571 322.304 808.342 325.428 C 811.274 327.352 810.218 326.898 813.819 326.89 C 815.562 328.434 816.122 332.725 815.329 334.847 C 813.456 336.303 809.897 336.263 807.401 336.461 L 807.24 336.456 C 788.381 335.759 793.506 325.089 792.787 310.642 C 792.788 310.647 787.997 306.282 787.611 305.348 C 782.626 293.295 792.501 302.337 794.067 291.161 C 796.362 288.176 801.875 286.03 805.44 284.318 Z" style="stroke-width: 1;"/>
  <path fill="#FF5A62" d="M 363.93 297.538 L 378.474 297.395 C 381.025 305.272 383.44 313.505 385.881 321.442 C 388.437 314.5 391.25 304.655 393.528 297.42 L 408.078 297.504 L 403.071 309.702 L 392.124 335.435 L 379.171 335.408 C 375.686 327.065 366.021 305.404 363.93 297.538 Z" style="stroke-width: 1;"/>
  <path fill="#FF5A62" d="M 1585.33 283.541 L 1599.91 283.53 L 1599.89 335.379 L 1585.36 335.427 L 1585.33 283.541 Z" style="stroke-width: 1;"/>
  <path fill="#F5EDE4" d="M 1943.17 218.551 C 1951.41 217.328 1959.08 223.023 1960.29 231.266 C 1961.5 239.508 1955.8 247.171 1947.56 248.374 C 1939.33 249.576 1931.68 243.883 1930.47 235.654 C 1929.26 227.425 1934.94 219.771 1943.17 218.551 Z" style="stroke-width: 1;"/>
  <path fill="#FF5A62" d="M 958.846 296.218 C 961.624 296.371 964.914 296.966 967.134 298.701 C 969.198 304.344 958.58 308.517 954.364 310.824 C 951.721 315.149 952.505 329.689 952.542 335.353 L 941.751 335.422 L 939.448 335.266 C 936.543 331.907 937.838 303.524 937.898 297.464 C 940.945 297.349 946.153 296.887 948.894 297.992 C 950.355 298.581 951.203 299.766 952.816 300.158 C 954.856 298.702 956.716 297.534 958.846 296.218 Z" style="stroke-width: 1;"/>
  <path fill="#FF5A62" d="M 1196.27 297.477 L 1210.92 297.45 L 1210.88 335.354 L 1196.3 335.426 L 1196.27 297.477 Z" style="stroke-width: 1;"/>
  <path fill="#FF5A62" d="M 1700.32 297.472 L 1714.78 297.45 L 1714.76 335.418 L 1700.26 335.426 L 1700.32 297.472 Z" style="stroke-width: 1;"/>
  <path fill="#FF5A62" d="M 1939.02 320.526 L 1954.21 320.468 L 1954.2 335.427 L 1938.83 335.425 C 1938.78 330.458 1938.84 325.491 1939.02 320.526 Z" style="stroke-width: 1;"/>
  <path fill="#FF5A62" d="M 1196.28 283.54 L 1210.86 283.527 L 1210.9 293.502 C 1206.85 293.579 1200.17 294.485 1197.36 292.441 C 1195.68 290.284 1196.2 286.386 1196.28 283.54 Z" style="stroke-width: 1;"/>
  <path fill="#FF5A62" d="M 1700.25 283.556 C 1704.14 283.505 1711 282.645 1713.62 284.519 C 1715.41 286.639 1714.85 290.606 1714.76 293.5 C 1710.82 293.573 1704.06 294.463 1701.33 292.49 C 1699.61 290.29 1700.16 286.46 1700.25 283.556 Z" style="stroke-width: 1;"/>
</svg>